<?xml version="1.0" standalone="no"?>
<!DOCTYPE svg PUBLIC "-//W3C//DTD SVG 1.1//EN" "http://www.w3.org/Graphics/SVG/1.1/DTD/svg11.dtd" >
<svg xmlns="http://www.w3.org/2000/svg" xmlns:xlink="http://www.w3.org/1999/xlink" version="1.1">
<metadata></metadata>
<defs>
<font id="helvetica_neue_ltregular" horiz-adv-x="1327" >
<font-face units-per-em="2048" ascent="1638" descent="-410" />
<missing-glyph horiz-adv-x="663" />
<glyph horiz-adv-x="0" />
<glyph horiz-adv-x="682" />
<glyph unicode=" "  horiz-adv-x="663" />
<glyph unicode="&#x09;" horiz-adv-x="663" />
<glyph unicode="&#xa0;" horiz-adv-x="663" />
<glyph unicode="!" horiz-adv-x="454" d="M207 0v197h41v-197h-41zM207 373v1089h41v-1089h-41z" />
<glyph unicode="&#x22;" horiz-adv-x="606" d="M158 1020v442h41v-442h-41zM408 1020v442h41v-442h-41z" />
<glyph unicode="#" d="M156 485v41h260l53 389h-254v41h260l68 486h41l-68 -486h361l67 486h41l-67 -486h253v-41h-260l-53 -389h254v-41h-260l-68 -485h-41l68 485h-360l-68 -485h-41l68 485h-254zM457 526h360l53 389h-360z" />
<glyph unicode="$" d="M49 475h41q2 -104 30.5 -183.5t77.5 -131.5t122.5 -85.5t157.5 -48t190 -16.5v713l-189 39q-66 14 -116.5 29.5t-102.5 43t-85.5 62.5t-55 88.5t-21.5 120.5q0 179 136.5 274t408.5 95h25v163h41v-165q78 -3 143.5 -15t114 -28.5t88.5 -41.5t67 -49t47.5 -57.5t32.5 -60 t20.5 -63.5t12 -61.5t6.5 -58.5h-41q-6 66 -18.5 114.5t-45.5 102t-84 88.5t-138 59.5t-205 29.5v-676l235 -51q334 -72 334 -332q0 -56 -12 -106.5t-49.5 -107t-98 -97t-165.5 -67.5t-244 -28v-192h-41v194q-117 1 -211.5 20.5t-157 49.5t-110 74t-73 86.5t-41.5 96 t-20.5 93t-5.5 86.5zM139 1102q0 -110 73 -182.5t251 -110.5l205 -45v670h-19q-510 0 -510 -332zM709 8q127 1 223.5 24t153 58t92 85t47.5 96.5t12 99.5q0 124 -82 195.5t-252 107.5l-194 41v-707z" />
<glyph unicode="%" horiz-adv-x="1820" d="M115 1087q0 104 30.5 182.5t82 121.5t110.5 63.5t125 20.5t125 -20.5t110.5 -63.5t82 -121.5t30.5 -182.5t-30.5 -182t-82 -121t-110.5 -63.5t-125 -20.5t-125 20.5t-110.5 63.5t-82 121t-30.5 182zM156 1087q0 -166 83 -256t224 -90t224 90t83 256t-83 256.5t-224 90.5 t-224 -90.5t-83 -256.5zM403 -45l975 1532h41l-975 -1532h-41zM1010 354q0 104 30.5 182t82 121t110.5 63.5t125 20.5t125 -20.5t110.5 -63.5t82 -121t30.5 -182t-30.5 -182t-82 -121t-110.5 -63.5t-125 -20.5t-125 20.5t-110.5 63.5t-82 121t-30.5 182zM1051 354 q0 -166 83 -256t224 -90t224 90t83 256t-83 256t-224 90t-224 -90t-83 -256z" />
<glyph unicode="&#x26;" horiz-adv-x="1441" d="M113 381q0 133 64.5 222.5t213.5 152.5l174 73q-121 116 -173 197.5t-52 163.5q0 123 79 197.5t245 74.5q164 0 246.5 -75.5t82.5 -192.5q0 -118 -76 -202t-278 -179l561 -539q86 119 100 287h41q-12 -178 -112 -315l256 -246h-60l-221 213q-216 -246 -557 -246 q-149 0 -269 48t-192.5 143.5t-72.5 222.5zM154 381q0 -76 32.5 -143t93.5 -118.5t156.5 -81.5t214.5 -30q317 0 525 234l-580 557l-170 -72q-142 -59 -207 -140.5t-65 -205.5zM381 1192q0 -70 42.5 -138.5t182.5 -209.5q188 83 267 162t79 190q0 103 -76.5 164t-213.5 61 q-145 0 -213 -64t-68 -165z" />
<glyph unicode="'" horiz-adv-x="344" d="M152 1020v442h41v-442h-41z" />
<glyph unicode="(" horiz-adv-x="532" d="M137 537q0 247 77 489.5t210 435.5h53q-147 -210 -223 -447.5t-76 -477.5t76 -478.5t223 -447.5h-53q-132 193 -209.5 435.5t-77.5 490.5z" />
<glyph unicode=")" horiz-adv-x="532" d="M55 -389q147 209 223 447.5t76 478.5t-76 477.5t-223 447.5h54q132 -192 209 -434.5t77 -490.5t-77 -491t-209 -435h-54z" />
<glyph unicode="*" horiz-adv-x="757" d="M57 1214l13 39l288 -94v303h41v-303l289 94l12 -39l-288 -94l178 -246l-33 -24l-178 246l-178 -246l-33 24l178 246z" />
<glyph unicode="+" horiz-adv-x="1228" d="M96 498v41h498v497h41v-497h498v-41h-498v-498h-41v498h-498z" />
<glyph unicode="," horiz-adv-x="344" d="M94 -193q58 37 58 181v209h41v-195q0 -95 -20 -153.5t-79 -94.5v53z" />
<glyph unicode="-" horiz-adv-x="757" d="M160 524v41h438v-41h-438z" />
<glyph unicode="." horiz-adv-x="344" d="M152 0v197h41v-197h-41z" />
<glyph unicode="/" horiz-adv-x="833" d="M-31 -33l854 1528h41l-854 -1528h-41z" />
<glyph unicode="0" d="M51 721q0 126 20 235t66 205.5t116 165t174.5 108.5t236.5 40t236.5 -40t174 -108.5t115.5 -165t66 -205.5t20 -235t-20 -235t-66 -205.5t-115.5 -165t-174 -108.5t-236.5 -40t-236.5 40t-174.5 108.5t-116 165t-66 205.5t-20 235zM92 721q0 -155 32.5 -281.5t99 -224.5 t178.5 -152.5t262 -54.5q149 0 261 54.5t178.5 152.5t99 224.5t32.5 281.5t-32.5 281.5t-99 224.5t-178.5 152.5t-261 54.5q-150 0 -262 -54.5t-178.5 -152.5t-99 -224.5t-32.5 -281.5z" />
<glyph unicode="1" horiz-adv-x="872" d="M70 1128v41q279 69 454 273h54v-1442h-41v1389q-88 -98 -215 -166.5t-252 -94.5z" />
<glyph unicode="2" d="M127 0q1 64 16 116.5t41.5 94.5t74.5 85t103 80t140 87l325 188q289 165 289 406q0 189 -121.5 283t-341.5 94q-234 0 -344 -117t-110 -354h-41q0 36 0.5 59.5t5.5 67.5t13.5 75.5t26.5 74.5t43 73.5t64.5 63t89 52.5t118.5 33t151 13q116 0 206 -29.5t141.5 -73 t84.5 -101t44 -106.5t11 -96q0 -149 -79.5 -257.5t-223.5 -193.5l-358 -206q-172 -99 -242.5 -178t-85.5 -193h1032v-41h-1073z" />
<glyph unicode="3" d="M106 442q0 6 1.5 21t1.5 24h41q-3 -21 -3 -45q0 -222 138.5 -328t380.5 -106q115 0 206.5 24t148 62t93.5 89t51.5 100t14.5 100q0 176 -118.5 271.5t-369.5 95.5h-90v41h86q230 0 344.5 82.5t114.5 222.5q0 171 -120 254.5t-333 83.5q-263 0 -378.5 -107t-127.5 -338 h-41q5 117 34.5 203t91.5 151.5t167 98.5t254 33q249 0 371.5 -102t122.5 -277q0 -44 -10.5 -85t-35.5 -82t-62.5 -72t-97 -54t-134.5 -31v-4q102 -11 175.5 -45.5t116 -87t62 -115t19.5 -137.5q0 -53 -14 -105t-52.5 -110t-98.5 -101t-162 -71.5t-232 -28.5 q-275 0 -415.5 126.5t-140.5 348.5z" />
<glyph unicode="4" d="M90 381v55l799 1006h53v-1020h295v-41h-295v-381h-41v381h-811zM131 422h770v967h-4z" />
<glyph unicode="5" d="M113 461h41q0 -83 20.5 -151.5t52.5 -114.5t77.5 -81t90.5 -54.5t97 -32t92 -16t80 -3.5q243 0 376.5 124.5t133.5 324.5q0 220 -127.5 348.5t-382.5 128.5q-154 0 -279 -67.5t-176 -159.5h-53l170 735h821v-41h-785l-147 -613l4 -4q63 83 186 137t259 54q78 0 150 -13 t147 -49.5t129.5 -92.5t89 -149.5t34.5 -213.5q0 -103 -35 -191t-102 -155t-173 -105.5t-240 -38.5q-80 0 -154 14t-147.5 49.5t-128 90t-88 142t-33.5 198.5z" />
<glyph unicode="6" d="M104 709q0 394 140.5 580t449.5 186q92 0 174 -22.5t150.5 -68t114 -121t57.5 -173.5h-41q-13 90 -55.5 158t-106 107.5t-137.5 59t-158 19.5q-293 0 -420 -178t-127 -547q0 -30 1 -67.5t1 -53.5h5q29 126 110.5 212.5t187 124.5t230.5 38q249 0 396 -138.5t147 -359.5 t-147 -359.5t-396 -138.5q-102 0 -184 20t-141.5 55t-104 88.5t-72 114t-44.5 138.5t-23.5 155.5t-6.5 170.5zM178 465q0 -219 132 -338t370 -119q224 0 363 123.5t139 333.5t-139 333.5t-363 123.5q-231 0 -366.5 -128.5t-135.5 -328.5z" />
<glyph unicode="7" horiz-adv-x="1214" d="M92 1401v41h1020v-53q-676 -594 -713 -1389h-41q10 186 52 359t123.5 351t217 353t320.5 338h-979z" />
<glyph unicode="8" d="M86 381q0 373 412 414v4q-75 5 -134.5 28t-96.5 55.5t-61.5 73.5t-34 80t-9.5 78q0 178 129 269.5t373 91.5t372.5 -91.5t128.5 -269.5q0 -39 -9.5 -78t-34 -80t-61.5 -73.5t-96.5 -55.5t-134.5 -28v-4q412 -41 412 -414q0 -69 -18 -128.5t-60.5 -113t-107.5 -91 t-164.5 -59.5t-226.5 -22t-226.5 22t-164.5 59.5t-108 91t-61 113t-18 128.5zM127 381q0 -98 39 -171t111.5 -116.5t168.5 -64.5t218 -21t218 21t168.5 64.5t111 116.5t38.5 171q0 88 -26 156t-72.5 112.5t-115 73.5t-147 41t-175.5 12q-537 0 -537 -395zM203 1120 q0 -147 117.5 -225t343.5 -78t343 78t117 225q0 150 -116 232t-344 82t-344.5 -82t-116.5 -232z" />
<glyph unicode="9" d="M104 977q0 221 147 359.5t396 138.5q102 0 184 -20t141.5 -55t104 -88.5t72 -114t44.5 -138.5t23.5 -155.5t6.5 -170.5q0 -394 -140.5 -580t-449.5 -186q-92 0 -174 22.5t-150.5 68t-114 121t-57.5 173.5h41q13 -90 55.5 -158t106 -107.5t137.5 -59t158 -19.5 q293 0 420 178t127 547q0 30 -1 67.5t-1 53.5h-4q-29 -126 -111 -212.5t-187.5 -124.5t-230.5 -38q-249 0 -396 138.5t-147 359.5zM145 977q0 -210 139 -333.5t363 -123.5q231 0 366.5 128.5t135.5 328.5q0 219 -132 338t-370 119q-224 0 -363 -123.5t-139 -333.5z" />
<glyph unicode=":" horiz-adv-x="344" d="M152 0v197h41v-197h-41zM152 807v197h41v-197h-41z" />
<glyph unicode=";" horiz-adv-x="344" d="M94 -193q58 37 58 181v209h41v-195q0 -95 -20 -153.5t-79 -94.5v53zM152 807v197h41v-197h-41z" />
<glyph unicode="&#x3c;" horiz-adv-x="1228" d="M96 487v62l1037 508v-53l-996 -486l996 -485v-53z" />
<glyph unicode="=" horiz-adv-x="1228" d="M96 299v41h1037v-41h-1037zM96 696v41h1037v-41h-1037z" />
<glyph unicode="&#x3e;" horiz-adv-x="1228" d="M96 -20v53l996 485l-996 486v53l1037 -508v-62z" />
<glyph unicode="?" horiz-adv-x="1251" d="M92 1010q1 56 5.5 98t18 95.5t35 92.5t61 78.5t93 64.5t133 40.5t178.5 15.5q89 0 163.5 -11.5t139.5 -38.5t110 -68t71 -103t26 -141q0 -118 -42.5 -188t-147.5 -140l-176 -117q-82 -55 -103.5 -94.5t-21.5 -132.5v-86h-41v57q0 49 1 75t6.5 56.5t15 47.5t29 39.5 t45.5 41.5t67 45l143 92q108 69 146 135.5t38 165.5q0 324 -469 324q-89 0 -160.5 -13t-121 -34t-85.5 -55t-57.5 -69.5t-34.5 -84t-18 -91t-6 -97.5h-41zM594 0v197h41v-197h-41z" />
<glyph unicode="@" horiz-adv-x="1638" d="M94 731q0 155 60.5 296.5t163 244t244 163t296.5 60.5q186 0 343 -80.5t250 -227t93 -327.5q0 -148 -67.5 -285.5t-176.5 -221t-223 -83.5q-51 0 -86 32t-35 83q0 40 21 98h-4q-113 -213 -303 -213q-120 0 -195.5 86t-75.5 205q0 112 33.5 222.5t93.5 201t152.5 147 t200.5 56.5q89 0 154.5 -47.5t82.5 -130.5h4l41 137h41l-188 -662q-17 -63 -17 -102q0 -31 23 -51.5t59 -20.5q105 0 204.5 82t159.5 208.5t60 252.5q0 142 -57 259t-150 190t-206.5 112t-231.5 39q-196 0 -362.5 -97t-263.5 -263.5t-97 -362.5t97 -362.5t263.5 -263.5 t362.5 -97q195 0 351 92.5t255 243.5h47q-94 -173 -273.5 -275t-379.5 -102q-155 0 -296.5 60.5t-244 163t-163 244t-60.5 296.5zM440 561q0 -109 69 -179.5t179 -70.5q71 0 137 51.5t112 127.5t81 163t52 160t17 115q0 111 -61.5 165t-146.5 54q-126 0 -228.5 -86.5 t-156.5 -220t-54 -279.5z" />
<glyph unicode="A" d="M-35 0l672 1462h53l672 -1462h-53l-219 483h-852l-220 -483h-53zM256 524h815l-407 897z" />
<glyph unicode="B" horiz-adv-x="1402" d="M113 0v1462h794q178 0 285.5 -94t107.5 -268q0 -130 -98 -232q-95 -100 -218 -100h-7v-4q74 -3 138 -25.5t117 -64.5t83.5 -113t30.5 -164q0 -55 -14 -107t-49.5 -106t-89.5 -93.5t-141.5 -65t-197.5 -25.5h-741zM154 41h700q104 0 185.5 24t130 60.5t80.5 85.5 t43.5 94.5t11.5 91.5q0 78 -24 138t-64.5 98.5t-99.5 63t-123 34.5t-140 10h-700v-700zM154 782h716q90 0 165 27.5t123.5 72.5t75 101.5t26.5 116.5q0 156 -96.5 238.5t-264.5 82.5h-745v-639z" />
<glyph unicode="C" horiz-adv-x="1630" d="M57 731q0 177 59.5 322.5t162.5 241.5t241 148t295 52q177 0 317.5 -47.5t241.5 -152.5t139 -259h-40q-21 87 -70.5 160.5t-128.5 132.5t-196.5 92t-262.5 33q-115 0 -221 -29.5t-196 -90t-157 -146t-105 -203t-38 -254.5t38 -254.5t105 -203t157 -146t196 -90t221 -29.5 q143 0 269.5 45t215.5 120t143.5 174.5t63.5 207.5h41q-16 -142 -85 -256t-171.5 -185.5t-225 -109t-251.5 -37.5q-157 0 -295 52t-241 148t-162.5 241.5t-59.5 322.5z" />
<glyph unicode="D" horiz-adv-x="1517" d="M113 0v1462h712q197 0 336 -92.5t207 -255.5t68 -383t-68 -383t-207 -255.5t-336 -92.5h-712zM154 41h671q122 0 220 38t162.5 102.5t107.5 154t61.5 187.5t18.5 208t-18.5 208t-61.5 187.5t-107.5 154t-162.5 102.5t-220 38h-671v-1380z" />
<glyph unicode="E" horiz-adv-x="1290" d="M113 0v1462h1138v-41h-1097v-639h1050v-41h-1050v-700h1110v-41h-1151z" />
<glyph unicode="F" horiz-adv-x="1138" d="M113 0v1462h1026v-41h-985v-639h925v-41h-925v-741h-41z" />
<glyph unicode="G" horiz-adv-x="1669" d="M57 731q0 177 59.5 322.5t162.5 241.5t241 148t295 52q613 0 705 -491h-41q-21 81 -51.5 145t-83 122.5t-123 97.5t-173.5 62t-233 23q-115 0 -221 -29.5t-196 -90t-157 -146t-105 -203t-38 -254.5q0 -171 58.5 -310t158.5 -228t231 -137t279 -48q111 0 211 23.5 t188.5 74t153 124t101.5 180t37 235.5h-648v41h688v-686h-40v391h-5q-50 -145 -159 -242.5t-243.5 -139.5t-293.5 -42q-157 0 -295 52t-241 148t-162.5 241.5t-59.5 322.5z" />
<glyph unicode="H" horiz-adv-x="1478" d="M113 0v1462h41v-680h1171v680h41v-1462h-41v741h-1171v-741h-41z" />
<glyph unicode="I" horiz-adv-x="266" d="M113 0v1462h41v-1462h-41z" />
<glyph unicode="J" horiz-adv-x="1062" d="M45 455h41q0 -447 406 -447q98 0 174 24t121 60.5t73.5 86t38.5 94.5t10 92v1097h41v-1097q0 -56 -13 -109t-46.5 -106.5t-83.5 -93t-130 -64.5t-181 -25q-226 0 -338.5 123.5t-112.5 364.5z" />
<glyph unicode="K" horiz-adv-x="1402" d="M113 0v1462h41v-891l1161 891h71l-798 -610l862 -852h-64l-833 823l-399 -305v-518h-41z" />
<glyph unicode="L" horiz-adv-x="1099" d="M113 0v1462h41v-1421h985v-41h-1026z" />
<glyph unicode="M" horiz-adv-x="1896" d="M113 0v1462h67l768 -1421h4l764 1421h68v-1462h-41v1409h-4l-764 -1409h-53l-764 1409h-4v-1409h-41z" />
<glyph unicode="N" horiz-adv-x="1478" d="M113 0v1462h53l1155 -1409h4v1409h41v-1462h-53l-1155 1409h-4v-1409h-41z" />
<glyph unicode="O" horiz-adv-x="1630" d="M57 731q0 177 59.5 322.5t162.5 241.5t241 148t295 52t295 -52t241 -148t162.5 -241.5t59.5 -322.5t-59.5 -322.5t-162.5 -241.5t-241 -148t-295 -52t-295 52t-241 148t-162.5 241.5t-59.5 322.5zM98 731q0 -137 38 -254.5t105 -203t157 -146t196 -90t221 -29.5t221 29.5 t196 90t157 146t105 203t38 254.5t-38 254.5t-105 203t-157 146t-196 90t-221 29.5t-221 -29.5t-196 -90t-157 -146t-105 -203t-38 -254.5z" />
<glyph unicode="P" d="M113 0v1462h782q405 0 405 -399q0 -63 -13 -117.5t-46 -107t-84 -90t-132.5 -60t-186.5 -22.5h-684v-666h-41zM154 707h694q202 0 307 93.5t105 262.5q0 181 -92 269.5t-261 88.5h-753v-714z" />
<glyph unicode="Q" horiz-adv-x="1630" d="M57 731q0 177 59.5 322.5t162.5 241.5t241 148t295 52t295 -52t241 -148t162.5 -241.5t59.5 -322.5q0 -194 -70.5 -348t-195.5 -254l272 -180l-25 -37l-286 188q-192 -133 -453 -133q-157 0 -295 52t-241 148t-162.5 241.5t-59.5 322.5zM98 731q0 -137 38 -254.5 t105 -203t157 -146t196 -90t221 -29.5q232 0 414 119l-275 180l25 37l289 -190q124 93 194 239.5t70 337.5q0 137 -38 254.5t-105 203t-157 146t-196 90t-221 29.5t-221 -29.5t-196 -90t-157 -146t-105 -203t-38 -254.5z" />
<glyph unicode="R" horiz-adv-x="1402" d="M113 0v1462h805q214 0 308.5 -99t94.5 -300q0 -44 -11.5 -88.5t-38 -90t-65.5 -81t-99.5 -60t-133.5 -28.5l-2 -4q166 -1 244.5 -78t78.5 -230q0 -48 2 -117.5t10 -164t21 -121.5h-41q-16 31 -24.5 141t-8.5 224q0 73 -9 121t-34.5 89.5t-73 64.5t-122.5 35.5t-185 12.5 h-675v-688h-41zM154 729h696q107 0 191 28t135 75.5t77.5 106.5t26.5 124q0 105 -25.5 176.5t-76 110.5t-114 55t-151.5 16h-759v-692z" />
<glyph unicode="S" horiz-adv-x="1366" d="M68 481h41q1 -108 32 -190.5t84.5 -135.5t132.5 -86.5t168 -47t199 -13.5q125 0 221.5 23t154 58.5t94 85.5t49.5 98.5t13 101.5q0 121 -75 194.5t-240 108.5l-463 98q-187 39 -273.5 118t-86.5 226q0 182 133.5 278.5t406.5 96.5q141 0 248 -25t171 -65t105.5 -100 t57.5 -119t21 -133h-41q-7 96 -38.5 167.5t-95 125.5t-168 81t-249.5 27q-251 0 -380.5 -80.5t-129.5 -257.5q0 -114 69 -185.5t244 -109.5l492 -106q169 -37 251 -119t82 -217q0 -56 -11.5 -106.5t-48.5 -109t-98 -99.5t-170 -69t-253 -28q-120 0 -218 18t-164 47 t-115.5 72t-77.5 86.5t-45 98t-22.5 98t-6.5 94.5z" />
<glyph unicode="T" horiz-adv-x="1175" d="M-43 1421v41h1262v-41h-611v-1421h-41v1421h-610z" />
<glyph unicode="U" horiz-adv-x="1478" d="M102 535v927h41v-932q0 -94 18.5 -171t62 -143.5t111.5 -111.5t170 -70.5t234 -25.5t234 25.5t170 70.5t111.5 111.5t62 143.5t18.5 171v932h41v-927q0 -568 -637 -568t-637 568z" />
<glyph unicode="V" horiz-adv-x="1290" d="M-33 1462h53l625 -1409l625 1409h53l-651 -1462h-54z" />
<glyph unicode="W" horiz-adv-x="2011" d="M-39 1462h41l471 -1409h4l498 1409h61l498 -1409h4l471 1409h41l-487 -1462h-54l-501 1421h-4l-502 -1421h-53z" />
<glyph unicode="X" horiz-adv-x="1253" d="M-37 0l633 748l-610 714h53l588 -688l587 688h54l-611 -714l633 -748h-53l-610 721l-611 -721h-53z" />
<glyph unicode="Y" horiz-adv-x="1290" d="M-66 1462h60l651 -800l651 800h60l-690 -846v-616h-41v616z" />
<glyph unicode="Z" horiz-adv-x="1175" d="M-39 0v59l1178 1362h-1108v41h1161v-49l-1190 -1372h1212v-41h-1253z" />
<glyph unicode="[" horiz-adv-x="532" d="M143 -389v1851h279v-41h-238v-1769h238v-41h-279z" />
<glyph unicode="\" horiz-adv-x="833" d="M-31 1495h41l854 -1528h-41z" />
<glyph unicode="]" horiz-adv-x="532" d="M111 -348h237v1769h-237v41h278v-1851h-278v41z" />
<glyph unicode="^" horiz-adv-x="1228" d="M125 514l469 928h41l469 -928h-41l-449 887l-448 -887h-41z" />
<glyph unicode="_" horiz-adv-x="1024" d="M0 -154h1024v-102h-1024v102z" />
<glyph unicode="`" horiz-adv-x="266" d="M-135 1491h65l336 -285h-57z" />
<glyph unicode="a" horiz-adv-x="1155" d="M49 285q0 134 88.5 211.5t253.5 83.5l346 12q87 3 134 9.5t76.5 25t37.5 46t8 77.5v57q0 124 -107 178.5t-327 54.5q-223 0 -316.5 -70t-105.5 -239h-41q4 83 28.5 144.5t63.5 100.5t97.5 62.5t124 33t149.5 9.5q247 0 361 -66.5t114 -205.5v-680q0 -48 14.5 -68 t55.5 -20q45 0 96 14v-41q-35 -14 -96 -14q-111 0 -111 104v125h-4q-57 -117 -184 -189.5t-340 -72.5q-192 0 -304 81.5t-112 236.5zM90 283q0 -135 104.5 -205t272.5 -70q130 0 232.5 32.5t165.5 90t95.5 131t32.5 158.5v194h-4q-32 -54 -274 -63l-320 -12 q-156 -6 -230.5 -74t-74.5 -182z" />
<glyph unicode="b" horiz-adv-x="1253" d="M113 0v1462h41v-698h4q31 86 84 149t120 98.5t140 52.5t155 17q111 0 202 -29.5t154.5 -81.5t107 -123t63.5 -152t20 -171t-20 -171t-63.5 -152t-107 -123t-154.5 -81.5t-202 -29.5q-182 0 -311.5 81t-187.5 235h-4v-283h-41zM154 524q0 -104 29.5 -194.5t88 -163.5 t157.5 -115.5t228 -42.5q130 0 229.5 42.5t158.5 115.5t88.5 163.5t29.5 194.5t-29.5 194.5t-88.5 163.5t-158.5 115.5t-229.5 42.5q-129 0 -228 -42.5t-157.5 -115.5t-88 -163.5t-29.5 -194.5z" />
<glyph unicode="c" d="M98 524q0 159 69.5 285t202 199t306.5 73q229 0 371.5 -95t173.5 -265h-41q-73 319 -504 319q-128 0 -231.5 -41.5t-169.5 -113t-101 -164t-35 -197.5t35 -197.5t101 -164t169.5 -113t231.5 -41.5q202 0 335 89.5t177 258.5h41q-44 -182 -183.5 -285.5t-369.5 -103.5 q-174 0 -306.5 73t-202 199t-69.5 285z" />
<glyph unicode="d" horiz-adv-x="1253" d="M49 524q0 90 20 171t63.5 152t107 123t154.5 81.5t202 29.5q82 0 155 -17t140.5 -52.5t120.5 -98.5t84 -149h4v698h41v-1462h-41v283h-4q-58 -154 -188 -235t-312 -81q-111 0 -202 29.5t-154.5 81.5t-107 123t-63.5 152t-20 171zM90 524q0 -104 29.5 -194.5t88.5 -163.5 t158.5 -115.5t229.5 -42.5q129 0 228 42.5t158 115.5t88.5 163.5t29.5 194.5t-29.5 194.5t-88.5 163.5t-158 115.5t-228 42.5q-130 0 -229.5 -42.5t-158.5 -115.5t-88.5 -163.5t-29.5 -194.5z" />
<glyph unicode="e" horiz-adv-x="1214" d="M49 524q0 159 69.5 285t202 199t306.5 73q115 0 216 -38t177.5 -108t121 -176t44.5 -235h-1096q0 -105 35 -197.5t101 -164t169.5 -113t231.5 -41.5q402 0 501 357h41q-11 -51 -30.5 -98.5t-61 -104.5t-98 -98t-148 -69t-204.5 -28q-174 0 -306.5 73t-202 199t-69.5 285z M90 565h1055q-6 94 -43 179t-100.5 151.5t-160.5 105.5t-214 39q-123 0 -223.5 -37.5t-166 -103.5t-103 -151t-44.5 -183z" />
<glyph unicode="f" horiz-adv-x="569" d="M2 1008v41h250v206q0 53 14 92.5t37 63.5t59 38.5t74 20t88 5.5q6 0 123 -5v-40q-39 4 -117 4q-73 0 -119.5 -11.5t-72.5 -37.5t-35.5 -61.5t-9.5 -90.5v-184h305v-41h-305v-1008h-41v1008h-250z" />
<glyph unicode="g" horiz-adv-x="1290" d="M59 551q0 251 150.5 390.5t408.5 139.5q202 0 333 -79.5t182 -219.5h4v267h41v-1016q0 -246 -140.5 -365t-398.5 -119q-54 0 -99.5 3t-98.5 12.5t-96 25t-86 42.5t-73.5 63t-52.5 89t-29 118h41q9 -55 24.5 -96t49.5 -84t85 -70t134.5 -44.5t194.5 -17.5q504 0 504 445 v280h-4q-132 -295 -515 -295q-258 0 -408.5 140t-150.5 391zM100 551q0 -236 138.5 -363t379.5 -127q245 0 382 129.5t137 360.5q0 239 -137.5 364t-381.5 125q-242 0 -380 -126.5t-138 -362.5z" />
<glyph unicode="h" horiz-adv-x="1214" d="M113 0v1462h41v-649h4q118 268 473 268q116 0 202.5 -25.5t137 -64.5t81 -97t40.5 -113t10 -122v-659h-41v659q0 60 -8 108t-35 101.5t-72.5 89t-125.5 59t-189 23.5q-90 0 -163.5 -18.5t-122 -47t-85 -70t-56 -81.5t-31.5 -87t-15.5 -80.5t-3.5 -67.5v-588h-41z" />
<glyph unicode="i" horiz-adv-x="266" d="M113 0v1049h41v-1049h-41zM113 1239v223h41v-223h-41z" />
<glyph unicode="j" horiz-adv-x="266" d="M-221 -367q61 -6 137 -6q114 0 155.5 51t41.5 170v1201h41v-1235q0 -117 -59 -172.5t-191 -55.5q-22 0 -64 3t-61 3v41zM113 1239v223h41v-223h-41z" />
<glyph unicode="k" horiz-adv-x="1099" d="M113 0v1462h41v-1024l835 611h72l-549 -402l590 -647h-53l-570 625l-325 -240v-385h-41z" />
<glyph unicode="l" horiz-adv-x="266" d="M113 0v1462h41v-1462h-41z" />
<glyph unicode="m" horiz-adv-x="1933" d="M113 0v1049h41v-201h4q105 233 426 233q140 0 243 -60.5t138 -184.5h4q53 124 154.5 184.5t226.5 60.5q116 0 202.5 -25.5t137 -64.5t81 -97t40.5 -113t10 -122v-659h-41v659q0 60 -8 108t-35 101.5t-72.5 89t-125.5 59t-189 23.5q-100 0 -180.5 -39.5t-131.5 -123.5 t-51 -201v-676h-41v676q0 97 -27.5 168.5t-78 113.5t-114 62t-142.5 20q-203 0 -316.5 -102t-113.5 -291v-647h-41z" />
<glyph unicode="n" horiz-adv-x="1214" d="M113 0v1049h41v-236h4q118 268 473 268q116 0 202.5 -25.5t137 -64.5t81 -97t40.5 -113t10 -122v-659h-41v659q0 60 -8 108t-35 101.5t-72.5 89t-125.5 59t-189 23.5q-90 0 -163.5 -18.5t-122 -47t-85 -70t-56 -81.5t-31.5 -87t-15.5 -80.5t-3.5 -67.5v-588h-41z" />
<glyph unicode="o" horiz-adv-x="1253" d="M49 524q0 159 69.5 285t202 199t306.5 73q131 0 240 -42.5t182.5 -116.5t114 -176.5t40.5 -221.5t-40.5 -221.5t-114 -176.5t-182.5 -116.5t-240 -42.5q-174 0 -306.5 73t-202 199t-69.5 285zM90 524q0 -105 35 -197.5t101 -164t169.5 -113t231.5 -41.5t231.5 41.5 t169 113t100.5 164t35 197.5t-35 197.5t-100.5 164t-169 113t-231.5 41.5t-231.5 -41.5t-169.5 -113t-101 -164t-35 -197.5z" />
<glyph unicode="p" horiz-adv-x="1253" d="M113 -414v1463h41v-283h4q58 154 187.5 234.5t311.5 80.5q111 0 202 -29.5t154.5 -81.5t107 -123t63.5 -152t20 -171t-20 -171t-63.5 -152t-107 -123t-154.5 -81.5t-202 -29.5t-204 29t-173.5 102.5t-121.5 186.5h-4v-699h-41zM154 524q0 -104 29.5 -194.5t88 -163.5 t157.5 -115.5t228 -42.5q130 0 229.5 42.5t158.5 115.5t88.5 163.5t29.5 194.5t-29.5 194.5t-88.5 163.5t-158.5 115.5t-229.5 42.5q-129 0 -228 -42.5t-157.5 -115.5t-88 -163.5t-29.5 -194.5z" />
<glyph unicode="q" horiz-adv-x="1253" d="M49 524q0 90 20 171t63.5 152t107 123t154.5 81.5t202 29.5q182 0 312 -80.5t188 -234.5h4v283h41v-1463h-41v699h-4q-31 -86 -84 -149t-120.5 -99t-140.5 -53t-155 -17q-111 0 -202 29.5t-154.5 81.5t-107 123t-63.5 152t-20 171zM90 524q0 -104 29.5 -194.5 t88.5 -163.5t158.5 -115.5t229.5 -42.5q129 0 228 42.5t158 115.5t88.5 163.5t29.5 194.5t-29.5 194.5t-88.5 163.5t-158 115.5t-228 42.5q-130 0 -229.5 -42.5t-158.5 -115.5t-88.5 -163.5t-29.5 -194.5z" />
<glyph unicode="r" horiz-adv-x="645" d="M113 0v1049h41v-283h4q44 152 163 233.5t269 81.5q28 0 88 -6v-41q-46 6 -90 6q-189 0 -311.5 -137t-122.5 -385v-518h-41z" />
<glyph unicode="s" horiz-adv-x="1024" d="M23 328h40q7 -65 20.5 -110.5t44.5 -87.5t81 -67t130 -40t191 -15q431 0 431 258q0 116 -67.5 165.5t-236.5 70.5l-317 39q-281 33 -281 260q0 136 108.5 208t348.5 72q110 0 187 -16t134 -54.5t86 -105t33 -164.5h-41q-7 172 -103.5 235.5t-307.5 63.5q-404 0 -404 -239 q0 -98 59 -150t189 -69l318 -39q188 -23 261.5 -85.5t73.5 -193.5q0 -297 -471 -297q-125 0 -216 20t-143.5 50.5t-85 81.5t-44 96.5t-18.5 112.5z" />
<glyph unicode="t" horiz-adv-x="606" d="M2 1008v41h250v360h41v-360h305v-41h-305v-813q0 -96 39 -131t147 -35q25 0 148 10v-41q-88 -10 -148 -10q-132 0 -179.5 48.5t-47.5 160.5v811h-250z" />
<glyph unicode="u" horiz-adv-x="1214" d="M113 389v660h41v-660q0 -60 8 -108t35 -101.5t72.5 -89t125.5 -59t189 -23.5q89 0 162.5 18.5t122 48t85 71t56.5 81t32 85t15.5 77t3.5 62.5v598h41v-1049h-41v236l-4 -5q-116 -264 -473 -264q-116 0 -202.5 25.5t-137 64.5t-81 97t-40.5 113t-10 122z" />
<glyph unicode="v" horiz-adv-x="1101" d="M0 1049h47l504 -1008l504 1008h47l-531 -1049h-41z" />
<glyph unicode="w" horiz-adv-x="1744" d="M-27 1049h54l403 -1008l410 1008h65l410 -1008l403 1008h54l-426 -1049h-62l-412 1008l-411 -1008h-62z" />
<glyph unicode="x" horiz-adv-x="1064" d="M-18 0l518 547l-475 502h61l446 -471l447 471h61l-479 -502l522 -547h-59l-492 514l-491 -514h-59z" />
<glyph unicode="y" horiz-adv-x="1024" d="M-27 1049h54l510 -998l460 998h54l-557 -1188q-63 -134 -120.5 -174.5t-174.5 -40.5h-82v41h94q89 0 137.5 33t93.5 130l70 152z" />
<glyph unicode="z" horiz-adv-x="985" d="M6 0v55l885 953h-830v41h883v-50l-897 -958h932v-41h-973z" />
<glyph unicode="{" horiz-adv-x="532" d="M61 516v41q144 5 144 328v342q0 45 4 78.5t14.5 64.5t29 50t49 30.5t71.5 11.5h110v-41h-110q-79 0 -103 -47t-24 -184v-320q0 -88 -13 -151.5t-37 -99t-45 -53t-49 -29.5q28 -12 49 -29.5t45 -53t37 -99.5t13 -152v-320q0 -137 24 -184t103 -47h110v-41h-110 q-41 0 -71.5 11.5t-49 30.5t-29 50t-14.5 64.5t-4 78.5v342q0 323 -144 328z" />
<glyph unicode="|" horiz-adv-x="454" d="M207 -33v1528h41v-1528h-41z" />
<glyph unicode="}" horiz-adv-x="532" d="M49 -348h111q79 0 103 47t24 184v320q0 88 13 152t36.5 99.5t44.5 53t49 29.5q-28 12 -49 29.5t-44.5 53t-36.5 99t-13 151.5v320q0 137 -24 184t-103 47h-111v41h111q41 0 71.5 -11.5t49 -30.5t29 -50t14.5 -64.5t4 -78.5v-342q0 -323 143 -328v-41q-143 -5 -143 -328 v-342q0 -45 -4 -78.5t-14.5 -64.5t-29 -50t-49 -30.5t-71.5 -11.5h-111v41z" />
<glyph unicode="~" horiz-adv-x="1228" d="M162 449q56 89 114 125t136 36q106 0 233 -69q128 -70 203 -70q38 0 93.5 38.5t94.5 106.5l31 -30q-46 -73 -109 -114.5t-110 -41.5q-86 0 -213 70q-125 69 -223 69q-69 0 -117 -32t-105 -117z" />
<glyph unicode="&#xa1;" horiz-adv-x="454" d="M207 -381v1090h41v-1090h-41zM207 885v196h41v-196h-41z" />
<glyph unicode="&#xa2;" d="M98 524q0 237 149 391.5t400 163.5v211h41v-209q224 -3 363 -98t170 -262h-41q-73 314 -492 319v-1032q197 3 326.5 92.5t173.5 255.5h41q-45 -179 -181 -282.5t-360 -106.5v-209h-41v211q-251 9 -400 163.5t-149 391.5zM139 524q0 -102 33 -192t95 -160.5t160 -114 t220 -47.5v1028q-122 -4 -220 -47.5t-160 -114t-95 -160.5t-33 -192z" />
<glyph unicode="&#xa3;" d="M96 0q132 130 203.5 249t71.5 210q0 107 -49 213h-187v41h166q-15 30 -50.5 93t-54 99.5t-35 95t-16.5 113.5q0 170 134 265.5t360 95.5q135 0 234 -24.5t172 -80t110 -149t37 -226.5v-28h-41q0 92 -12.5 159.5t-46 128t-90 98.5t-147.5 59.5t-216 21.5 q-88 0 -165.5 -17.5t-144 -54t-105 -101.5t-38.5 -151q0 -66 22 -127.5t69.5 -147t64.5 -122.5h492v-41h-472q50 -117 50 -215q0 -93 -59.5 -195.5t-207.5 -247.5h5q110 63 153 77.5t117 14.5q76 0 237 -49q165 -49 232 -49q78 0 153.5 44.5t159.5 140.5l29 -33 q-99 -105 -175.5 -149t-166.5 -44q-73 0 -238 49q-164 50 -231 50q-74 0 -136.5 -20.5t-158.5 -78.5z" />
<glyph unicode="&#xa4;" d="M33 610l22 41h152q-2 10 -2 31v33q0 74 8 131h-180l22 41h164q50 270 229.5 426.5t452.5 156.5q113 0 202 -25t185 -85l-20 -33q-90 55 -177 79t-194 24q-249 0 -419.5 -148t-211.5 -395h846l-25 -41h-827q-8 -57 -8 -129v-33q0 -23 2 -33h774l-22 -41h-748 q25 -268 199 -435t440 -167q122 0 210.5 35.5t201.5 116.5v-51q-97 -74 -194.5 -107t-219.5 -33q-285 0 -473 177.5t-213 463.5h-176z" />
<glyph unicode="&#xa5;" d="M-6 1442h59l600 -766h23l598 766h59l-602 -766h412v-41h-445l-14 -19v-194h459v-41h-459v-381h-41v381h-459v41h459v194l-14 19h-445v41h412z" />
<glyph unicode="&#xa6;" horiz-adv-x="454" d="M207 -33v553h41v-553h-41zM207 942v553h41v-553h-41z" />
<glyph unicode="&#xa7;" d="M106 715q0 124 80 199t209 98v4q-76 33 -113.5 83.5t-37.5 127.5q0 133 99 200.5t290 67.5q81 0 145 -10.5t108.5 -27.5t77.5 -44.5t52 -56.5t30.5 -69t15.5 -76t5 -83h-41q-1 83 -16.5 138.5t-57.5 100.5t-121 66t-200 21q-168 0 -257 -53.5t-89 -173.5q0 -76 48.5 -122 t213.5 -128l471 -232q122 -60 162.5 -119t40.5 -145q0 -108 -80 -188t-211 -86v-6q149 -79 149 -224q0 -60 -19.5 -109t-63.5 -89.5t-124 -63t-192 -22.5q-171 0 -272 43t-142 125t-41 215h41q0 -65 8 -111.5t33 -92.5t69 -74.5t119.5 -46t180.5 -17.5q362 0 362 239 q0 133 -172 217l-569 275q-191 92 -191 250zM147 729q0 -49 11 -81.5t48 -67.5t95 -68t164 -84l401 -192q159 6 236.5 77t77.5 176q0 84 -53 136.5t-203 124.5l-488 233q-45 -3 -94 -20.5t-93.5 -48t-73 -79t-28.5 -106.5z" />
<glyph unicode="&#xa8;" horiz-adv-x="266" d="M-98 1219v223h41v-223h-41zM324 1219v223h41v-223h-41z" />
<glyph unicode="&#xa9;" horiz-adv-x="1638" d="M55 731q0 155 60.5 296.5t163 244t244 163t296.5 60.5t296.5 -60.5t244 -163t163 -244t60.5 -296.5t-60.5 -296.5t-163 -244t-244 -163t-296.5 -60.5t-296.5 60.5t-244 163t-163 244t-60.5 296.5zM96 731q0 -196 97 -362.5t263.5 -263.5t362.5 -97t362.5 97t263.5 263.5 t97 362.5t-97 362.5t-263.5 263.5t-362.5 97t-362.5 -97t-263.5 -263.5t-97 -362.5zM379 733q0 221 121.5 350t335.5 129q158 0 263.5 -82.5t125.5 -232.5h-41q-23 135 -115 204.5t-231 69.5q-198 0 -308 -117.5t-110 -318.5q0 -198 113 -322t307 -124q142 0 231.5 75 t112.5 211h41q-20 -150 -123 -238.5t-262 -88.5q-210 0 -335.5 134.5t-125.5 350.5z" />
<glyph unicode="&#xaa;" horiz-adv-x="761" d="M10 1006q0 80 59 123.5t160 48.5l197 8q90 3 132 12.5t54.5 26.5t12.5 53v27q0 75 -70 110t-213 35q-141 0 -203 -42.5t-69 -145.5h-29q4 64 26 107.5t61.5 67t87.5 33t114 9.5q179 0 251 -40.5t72 -135.5v-392q0 -41 7 -50t38 -9q28 0 64 8v-29q-32 -8 -66 -8 q-35 0 -53 13.5t-18 54.5v67h-4q-34 -70 -115 -114.5t-211 -44.5q-131 0 -208 52.5t-77 154.5zM39 993q0 -77 69 -121.5t175 -44.5q178 0 272 91q42 38 56 71.5t14 81.5v123h-4q-16 -33 -195 -37l-190 -8q-197 -9 -197 -156z" />
<glyph unicode="&#xab;" horiz-adv-x="796" d="M147 526v37l242 283v-51l-213 -250l213 -250v-51zM375 526v37l241 283v-51l-213 -250l213 -250v-51z" />
<glyph unicode="&#xac;" horiz-adv-x="1228" d="M96 696v41h1037v-516h-41v475h-996z" />
<glyph unicode="&#xad;" horiz-adv-x="757" d="M160 524v41h438v-41h-438z" />
<glyph unicode="&#xae;" horiz-adv-x="1638" d="M55 731q0 155 60.5 296.5t163 244t244 163t296.5 60.5t296.5 -60.5t244 -163t163 -244t60.5 -296.5t-60.5 -296.5t-163 -244t-244 -163t-296.5 -60.5t-296.5 60.5t-244 163t-163 244t-60.5 296.5zM96 731q0 -196 97 -362.5t263.5 -263.5t362.5 -97t362.5 97t263.5 263.5 t97 362.5t-97 362.5t-263.5 263.5t-362.5 97t-362.5 -97t-263.5 -263.5t-97 -362.5zM541 279v905h358q140 0 208.5 -66t68.5 -184q0 -108 -63.5 -165.5t-166.5 -72.5l271 -417h-54l-270 417h-311v-417h-41zM582 737h305q248 0 248 199q0 61 -20.5 103.5t-55.5 64t-71.5 30.5 t-78.5 9h-327v-406z" />
<glyph unicode="&#xaf;" horiz-adv-x="266" d="M-252 1309v41h770v-41h-770z" />
<glyph unicode="&#xb0;" horiz-adv-x="819" d="M117 1182q0 122 85.5 207.5t207.5 85.5q121 0 206.5 -85.5t85.5 -207.5t-85.5 -207.5t-206.5 -85.5q-122 0 -207.5 85.5t-85.5 207.5zM158 1182q0 -104 74 -178t178 -74t178 74t74 178t-74 178t-178 74t-178 -74t-74 -178z" />
<glyph unicode="&#xb1;" horiz-adv-x="1228" d="M96 0v41h1037v-41h-1037zM96 586v41h498v409h41v-409h498v-41h-498v-410h-41v410h-498z" />
<glyph unicode="&#xb2;" horiz-adv-x="862" d="M51 586q1 50 14.5 87.5t46 70.5t73 60t110.5 66l252 136q63 34 105 92.5t42 124.5q0 114 -79 170.5t-222 56.5q-152 0 -223.5 -69.5t-71.5 -209.5h-28q2 111 34 170q71 138 304 138q75 0 133 -17.5t91.5 -44t55 -61t28.5 -64.5t7 -59q0 -90 -51.5 -154t-145.5 -116 l-243 -129q-103 -58 -148 -106t-55 -114h670v-28h-699z" />
<glyph unicode="&#xb3;" horiz-adv-x="862" d="M33 852v27h28v-19q0 -140 89 -205t247 -65q76 0 136 15t96.5 38.5t61 54.5t33.5 60t9 59q0 219 -315 219h-60v29h56q150 0 224.5 49t74.5 131q0 103 -78.5 154t-216.5 51q-171 0 -245 -64.5t-83 -201.5h-29q6 144 87.5 219.5t269.5 75.5q162 0 242.5 -62t80.5 -164 q0 -78 -52 -134t-169 -66v-4q128 -13 185 -75t57 -159q0 -34 -10 -66.5t-36 -67.5t-66 -61t-105.5 -42.5t-149.5 -16.5q-181 0 -271.5 77.5t-90.5 213.5z" />
<glyph unicode="&#xb4;" horiz-adv-x="266" d="M0 1206l336 285h65l-344 -285h-57z" />
<glyph unicode="&#xb5;" horiz-adv-x="1214" d="M113 -414v1463h41v-660q0 -60 8 -108t35 -101.5t72.5 -89t125.5 -59t189 -23.5q89 0 162.5 18.5t122 48t85 71t56.5 81t32 85t15.5 77t3.5 62.5v598h41v-1049h-41v236l-4 -5q-116 -264 -473 -264q-95 0 -171.5 17t-126.5 46.5t-81 63.5t-47 72v8h-4v-588h-41z" />
<glyph unicode="&#xb6;" horiz-adv-x="1228" d="M152 1061q0 194 117 297.5t323 103.5h407v-1736h-41v1695h-358v-1695h-41v938q-167 0 -287 117.5t-120 279.5zM193 1061q0 -145 108.5 -250.5t257.5 -105.5v716q-165 0 -265.5 -94t-100.5 -266z" />
<glyph unicode="&#xb7;" horiz-adv-x="344" d="M90 680q0 34 24 58t58 24t58 -24t24 -58t-24 -58t-58 -24t-58 24t-24 58z" />
<glyph unicode="&#xb8;" horiz-adv-x="569" d="M33 -346l16 39q96 -41 221 -41q89 0 130.5 26.5t41.5 83.5q0 41 -33.5 63.5t-93.5 22.5q-100 0 -149 -28l-35 24l139 154h54l-115 -121l4 -4q66 16 102 16q75 0 121.5 -32.5t46.5 -92.5q0 -153 -213 -153q-129 0 -237 43z" />
<glyph unicode="&#xb9;" horiz-adv-x="794" d="M115 1264v28q189 44 291 162h40v-868h-28v839q-56 -59 -138.5 -100.5t-164.5 -60.5z" />
<glyph unicode="&#xba;" horiz-adv-x="815" d="M33 1139q0 149 102.5 244.5t272.5 95.5t272 -95.5t102 -244.5t-102 -244.5t-272 -95.5t-272.5 95.5t-102.5 244.5zM61 1139q0 -132 92.5 -222t254.5 -90t254 90t92 222t-92 221.5t-254 89.5t-254.5 -89.5t-92.5 -221.5z" />
<glyph unicode="&#xbb;" horiz-adv-x="796" d="M180 244v51l213 250l-213 250v51l242 -283v-37zM408 244v51l213 250l-213 250v51l241 -283v-37z" />
<glyph unicode="&#xbc;" horiz-adv-x="1990" d="M115 1264v28q189 44 291 162h40v-868h-28v839q-56 -59 -138.5 -100.5t-164.5 -60.5zM367 -49l979 1540h40l-978 -1540h-41zM1126 229v35l516 604h41v-610h193v-29h-193v-229h-28v229h-529zM1155 258h500v582z" />
<glyph unicode="&#xbd;" horiz-adv-x="1990" d="M115 1264v28q189 44 291 162h40v-868h-28v839q-56 -59 -138.5 -100.5t-164.5 -60.5zM367 -49l979 1540h40l-978 -1540h-41zM1178 0q3 96 55 153t188 132l252 135q63 35 105.5 93.5t42.5 123.5q0 114 -79 170.5t-222 56.5q-152 0 -223.5 -69t-71.5 -209h-29q0 23 1 35.5 t4.5 40.5t9 45.5t17.5 44.5t28.5 44.5t42 37.5t58 31.5t78 19.5t99.5 8q75 0 133 -17.5t91.5 -44t55 -61t28.5 -64.5t7 -59q0 -90 -51 -154t-145 -116l-244 -129q-103 -58 -148 -105.5t-55 -113.5h670v-29h-698z" />
<glyph unicode="&#xbe;" horiz-adv-x="1990" d="M115 852v27h28v-19q0 -140 89 -205t247 -65q76 0 136 15t96.5 38.5t61 54.5t33.5 60t9 59q0 219 -315 219h-60v29h56q150 0 224.5 49t74.5 131q0 103 -78.5 154t-216.5 51q-171 0 -245 -64.5t-83 -201.5h-29q6 144 87.5 219.5t269.5 75.5q162 0 242.5 -62t80.5 -164 q0 -78 -52 -134t-169 -66v-4q128 -13 185 -75t57 -159q0 -34 -10 -66.5t-36 -67.5t-66 -61t-105.5 -42.5t-149.5 -16.5q-181 0 -271.5 77.5t-90.5 213.5zM543 -49l979 1540h41l-979 -1540h-41zM1126 229v35l516 604h41v-610h193v-29h-193v-229h-28v229h-529zM1155 258h500 v582z" />
<glyph unicode="&#xbf;" horiz-adv-x="1251" d="M125 -51q0 118 42.5 187.5t147.5 139.5l177 117q82 55 103 94.5t21 133.5v86h41v-58q0 -59 -2 -88.5t-9.5 -62t-26 -54t-47.5 -45.5t-78 -55l-144 -92q-108 -69 -146 -135.5t-38 -165.5q0 -324 469 -324q89 0 160.5 13t121 34.5t85.5 55.5t57.5 69.5t34.5 84t18 91 t6 97.5h41q-1 -56 -5.5 -98.5t-18 -96t-35 -92t-61 -78.5t-93 -65t-133 -40.5t-178.5 -15.5q-89 0 -163.5 11.5t-139.5 38.5t-110 68.5t-71 103.5t-26 141zM616 885v196h41v-196h-41z" />
<glyph unicode="&#xc0;" d="M-35 0l672 1462h53l672 -1462h-53l-219 483h-852l-220 -483h-53zM256 524h815l-407 897zM395 1853h66l336 -284h-58z" />
<glyph unicode="&#xc1;" d="M-35 0l672 1462h53l672 -1462h-53l-219 483h-852l-220 -483h-53zM256 524h815l-407 897zM530 1569l336 284h66l-344 -284h-58z" />
<glyph unicode="&#xc2;" d="M-35 0l672 1462h53l672 -1462h-53l-219 483h-852l-220 -483h-53zM256 524h815l-407 897zM293 1569l338 284h65l338 -284h-65l-305 256l-306 -256h-65z" />
<glyph unicode="&#xc3;" d="M-35 0l672 1462h53l672 -1462h-53l-219 483h-852l-220 -483h-53zM256 524h815l-407 897zM328 1638q12 79 60 122.5t124 43.5q42 0 88 -22l154 -80q47 -23 80 -23q42 0 77.5 30t46.5 95h41q-10 -80 -56 -123t-112 -43q-43 0 -92 25l-151 78q-43 22 -82 22q-48 0 -87 -31 t-50 -94h-41z" />
<glyph unicode="&#xc4;" d="M-35 0l672 1462h53l672 -1462h-53l-219 483h-852l-220 -483h-53zM256 524h815l-407 897zM432 1581v223h41v-223h-41zM854 1581v223h41v-223h-41z" />
<glyph unicode="&#xc5;" d="M-35 0l672 1462h53l672 -1462h-53l-219 483h-852l-220 -483h-53zM256 524h815l-407 897zM467 1722q0 82 57.5 139.5t139.5 57.5t139 -57.5t57 -139.5t-57 -139t-139 -57t-139.5 57t-57.5 139zM508 1722q0 -64 45.5 -109.5t110.5 -45.5q64 0 109.5 45.5t45.5 109.5 q0 65 -45.5 110.5t-109.5 45.5t-110 -46t-46 -110z" />
<glyph unicode="&#xc6;" horiz-adv-x="2123" d="M-51 0l958 1462h1200v-41h-1007v-639h928v-41h-928v-700h1007v-41h-1048v569h-686l-371 -569h-53zM399 610h660v811h-131z" />
<glyph unicode="&#xc7;" horiz-adv-x="1630" d="M57 731q0 177 59.5 322.5t162.5 241.5t241 148t295 52q177 0 317.5 -47.5t241.5 -152.5t139 -259h-40q-21 87 -70.5 160.5t-128.5 132.5t-196.5 92t-262.5 33q-115 0 -221 -29.5t-196 -90t-157 -146t-105 -203t-38 -254.5t38 -254.5t105 -203t157 -146t196 -90t221 -29.5 q143 0 269.5 45t215.5 120t143.5 174.5t63.5 207.5h41q-16 -140 -84 -253.5t-169 -185t-221.5 -109.5t-248.5 -40l-86 -90l4 -4q66 16 103 16q75 0 121.5 -32.5t46.5 -92.5q0 -153 -213 -153q-130 0 -238 43l17 39q96 -41 221 -41q89 0 130.5 26.5t41.5 83.5 q0 41 -33.5 63.5t-93.5 22.5q-101 0 -150 -28l-34 24l112 125q-150 6 -280.5 61t-227.5 150.5t-153 237.5t-56 313z" />
<glyph unicode="&#xc8;" horiz-adv-x="1290" d="M113 0v1462h1138v-41h-1097v-639h1050v-41h-1050v-700h1110v-41h-1151zM377 1853h65l336 -284h-57z" />
<glyph unicode="&#xc9;" horiz-adv-x="1290" d="M113 0v1462h1138v-41h-1097v-639h1050v-41h-1050v-700h1110v-41h-1151zM512 1569l336 284h65l-344 -284h-57z" />
<glyph unicode="&#xca;" horiz-adv-x="1290" d="M113 0v1462h1138v-41h-1097v-639h1050v-41h-1050v-700h1110v-41h-1151zM274 1569l338 284h66l338 -284h-66l-305 256l-305 -256h-66z" />
<glyph unicode="&#xcb;" horiz-adv-x="1290" d="M113 0v1462h1138v-41h-1097v-639h1050v-41h-1050v-700h1110v-41h-1151zM414 1581v223h41v-223h-41zM836 1581v223h41v-223h-41z" />
<glyph unicode="&#xcc;" horiz-adv-x="266" d="M-135 1853h65l336 -284h-57zM113 0v1462h41v-1462h-41z" />
<glyph unicode="&#xcd;" horiz-adv-x="266" d="M0 1569l336 284h65l-344 -284h-57zM113 0v1462h41v-1462h-41z" />
<glyph unicode="&#xce;" horiz-adv-x="266" d="M-238 1569l338 284h66l338 -284h-66l-305 256l-305 -256h-66zM113 0v1462h41v-1462h-41z" />
<glyph unicode="&#xcf;" horiz-adv-x="266" d="M-98 1581v223h41v-223h-41zM113 0v1462h41v-1462h-41zM324 1581v223h41v-223h-41z" />
<glyph unicode="&#xd0;" horiz-adv-x="1517" d="M-43 741v41h156v680h712q197 0 336 -92.5t207 -255.5t68 -383t-68 -383t-207 -255.5t-336 -92.5h-712v741h-156zM154 41h671q122 0 220 38t162.5 102.5t107.5 154t61.5 187.5t18.5 208t-18.5 208t-61.5 187.5t-107.5 154t-162.5 102.5t-220 38h-671v-639h677v-41h-677 v-700z" />
<glyph unicode="&#xd1;" horiz-adv-x="1478" d="M113 0v1462h53l1155 -1409h4v1409h41v-1462h-53l-1155 1409h-4v-1409h-41zM403 1638q12 78 60.5 122t124.5 44q42 0 88 -22l153 -80q47 -23 80 -23q43 0 78.5 30t46.5 95h41q-10 -80 -56 -123t-112 -43q-43 0 -92 25l-151 78q-43 22 -82 22q-48 0 -87.5 -31t-50.5 -94 h-41z" />
<glyph unicode="&#xd2;" horiz-adv-x="1630" d="M57 731q0 177 59.5 322.5t162.5 241.5t241 148t295 52t295 -52t241 -148t162.5 -241.5t59.5 -322.5t-59.5 -322.5t-162.5 -241.5t-241 -148t-295 -52t-295 52t-241 148t-162.5 241.5t-59.5 322.5zM98 731q0 -137 38 -254.5t105 -203t157 -146t196 -90t221 -29.5t221 29.5 t196 90t157 146t105 203t38 254.5t-38 254.5t-105 203t-157 146t-196 90t-221 29.5t-221 -29.5t-196 -90t-157 -146t-105 -203t-38 -254.5zM547 1853h65l336 -284h-57z" />
<glyph unicode="&#xd3;" horiz-adv-x="1630" d="M57 731q0 177 59.5 322.5t162.5 241.5t241 148t295 52t295 -52t241 -148t162.5 -241.5t59.5 -322.5t-59.5 -322.5t-162.5 -241.5t-241 -148t-295 -52t-295 52t-241 148t-162.5 241.5t-59.5 322.5zM98 731q0 -137 38 -254.5t105 -203t157 -146t196 -90t221 -29.5t221 29.5 t196 90t157 146t105 203t38 254.5t-38 254.5t-105 203t-157 146t-196 90t-221 29.5t-221 -29.5t-196 -90t-157 -146t-105 -203t-38 -254.5zM682 1569l336 284h65l-344 -284h-57z" />
<glyph unicode="&#xd4;" horiz-adv-x="1630" d="M57 731q0 177 59.5 322.5t162.5 241.5t241 148t295 52t295 -52t241 -148t162.5 -241.5t59.5 -322.5t-59.5 -322.5t-162.5 -241.5t-241 -148t-295 -52t-295 52t-241 148t-162.5 241.5t-59.5 322.5zM98 731q0 -137 38 -254.5t105 -203t157 -146t196 -90t221 -29.5t221 29.5 t196 90t157 146t105 203t38 254.5t-38 254.5t-105 203t-157 146t-196 90t-221 29.5t-221 -29.5t-196 -90t-157 -146t-105 -203t-38 -254.5zM444 1569l338 284h66l338 -284h-66l-305 256l-305 -256h-66z" />
<glyph unicode="&#xd5;" horiz-adv-x="1630" d="M57 731q0 177 59.5 322.5t162.5 241.5t241 148t295 52t295 -52t241 -148t162.5 -241.5t59.5 -322.5t-59.5 -322.5t-162.5 -241.5t-241 -148t-295 -52t-295 52t-241 148t-162.5 241.5t-59.5 322.5zM98 731q0 -137 38 -254.5t105 -203t157 -146t196 -90t221 -29.5t221 29.5 t196 90t157 146t105 203t38 254.5t-38 254.5t-105 203t-157 146t-196 90t-221 29.5t-221 -29.5t-196 -90t-157 -146t-105 -203t-38 -254.5zM479 1638q12 78 60.5 122t124.5 44q42 0 88 -22l153 -80q47 -23 80 -23q43 0 78.5 30t46.5 95h41q-10 -80 -56 -123t-112 -43 q-43 0 -92 25l-152 78q-43 22 -82 22q-48 0 -87 -31t-50 -94h-41z" />
<glyph unicode="&#xd6;" horiz-adv-x="1630" d="M57 731q0 177 59.5 322.5t162.5 241.5t241 148t295 52t295 -52t241 -148t162.5 -241.5t59.5 -322.5t-59.5 -322.5t-162.5 -241.5t-241 -148t-295 -52t-295 52t-241 148t-162.5 241.5t-59.5 322.5zM98 731q0 -137 38 -254.5t105 -203t157 -146t196 -90t221 -29.5t221 29.5 t196 90t157 146t105 203t38 254.5t-38 254.5t-105 203t-157 146t-196 90t-221 29.5t-221 -29.5t-196 -90t-157 -146t-105 -203t-38 -254.5zM584 1581v223h41v-223h-41zM1006 1581v223h41v-223h-41z" />
<glyph unicode="&#xd7;" horiz-adv-x="1228" d="M162 94l426 424l-426 424l28 29l424 -426l424 426l29 -29l-426 -424l426 -424l-29 -28l-424 426l-424 -426z" />
<glyph unicode="&#xd8;" horiz-adv-x="1630" d="M57 731q0 177 59.5 322.5t162.5 241.5t241 148t295 52t295 -52t238 -149l194 197l25 -25l-193 -196q199 -209 199 -539q0 -177 -59.5 -322.5t-162.5 -241.5t-241 -148t-295 -52t-294 51t-240 148l-193 -195l-25 25l193 197q-199 209 -199 538zM98 731q0 -316 189 -508 l1034 1043q-99 92 -229.5 140t-276.5 48q-115 0 -221 -29.5t-196 -90t-157 -146t-105 -203t-38 -254.5zM313 199q96 -93 226 -142t276 -49q115 0 221 29.5t196 90t157 146t105 203t38 254.5q0 314 -186 510z" />
<glyph unicode="&#xd9;" horiz-adv-x="1478" d="M102 535v927h41v-932q0 -94 18.5 -171t62 -143.5t111.5 -111.5t170 -70.5t234 -25.5t234 25.5t170 70.5t111.5 111.5t62 143.5t18.5 171v932h41v-927q0 -568 -637 -568t-637 568zM471 1853h66l335 -284h-57z" />
<glyph unicode="&#xda;" horiz-adv-x="1478" d="M102 535v927h41v-932q0 -94 18.5 -171t62 -143.5t111.5 -111.5t170 -70.5t234 -25.5t234 25.5t170 70.5t111.5 111.5t62 143.5t18.5 171v932h41v-927q0 -568 -637 -568t-637 568zM606 1569l336 284h66l-344 -284h-58z" />
<glyph unicode="&#xdb;" horiz-adv-x="1478" d="M102 535v927h41v-932q0 -94 18.5 -171t62 -143.5t111.5 -111.5t170 -70.5t234 -25.5t234 25.5t170 70.5t111.5 111.5t62 143.5t18.5 171v932h41v-927q0 -568 -637 -568t-637 568zM369 1569l338 284h65l338 -284h-66l-305 256l-305 -256h-65z" />
<glyph unicode="&#xdc;" horiz-adv-x="1478" d="M102 535v927h41v-932q0 -94 18.5 -171t62 -143.5t111.5 -111.5t170 -70.5t234 -25.5t234 25.5t170 70.5t111.5 111.5t62 143.5t18.5 171v932h41v-927q0 -568 -637 -568t-637 568zM508 1581v223h41v-223h-41zM930 1581v223h41v-223h-41z" />
<glyph unicode="&#xdd;" horiz-adv-x="1290" d="M-66 1462h60l651 -800l651 800h60l-690 -846v-616h-41v616zM512 1569l336 284h65l-344 -284h-57z" />
<glyph unicode="&#xde;" d="M113 0v1462h41v-291h741q405 0 405 -399q0 -63 -13 -117.5t-46 -107t-84 -90t-132.5 -60t-186.5 -22.5h-684v-375h-41zM154 416h694q202 0 307 93.5t105 262.5q0 181 -92 269.5t-261 88.5h-753v-714z" />
<glyph unicode="&#xdf;" horiz-adv-x="1175" d="M113 0v1073q0 118 31.5 199.5t96 129.5t152 68.5t209.5 20.5q68 0 128 -8.5t122 -32.5t105.5 -62t71.5 -101.5t28 -145.5q0 -70 -23 -126t-58 -90.5t-81 -58t-88 -33t-82 -10.5v-4q188 -2 300 -102t112 -299q0 -59 -13.5 -116.5t-47.5 -115t-85 -101t-133.5 -70.5 t-185.5 -27q-106 0 -174 24v41q82 -24 174 -24q95 0 170 24t121.5 63t77.5 91t43 104t12 107q0 89 -26.5 156.5t-69.5 109.5t-105 68.5t-126.5 36.5t-139.5 10h-99v41h43q225 0 334 80.5t109 222.5q0 82 -31 142.5t-88 96t-130 52t-165 16.5q-247 0 -347.5 -89.5 t-100.5 -295.5v-1065h-41z" />
<glyph unicode="&#xe0;" horiz-adv-x="1155" d="M49 285q0 134 88.5 211.5t253.5 83.5l346 12q87 3 134 9.5t76.5 25t37.5 46t8 77.5v57q0 124 -107 178.5t-327 54.5q-223 0 -316.5 -70t-105.5 -239h-41q4 83 28.5 144.5t63.5 100.5t97.5 62.5t124 33t149.5 9.5q247 0 361 -66.5t114 -205.5v-680q0 -48 14.5 -68 t55.5 -20q45 0 96 14v-41q-35 -14 -96 -14q-111 0 -111 104v125h-4q-57 -117 -184 -189.5t-340 -72.5q-192 0 -304 81.5t-112 236.5zM90 283q0 -135 104.5 -205t272.5 -70q130 0 232.5 32.5t165.5 90t95.5 131t32.5 158.5v194h-4q-32 -54 -274 -63l-320 -12 q-156 -6 -230.5 -74t-74.5 -182zM309 1491h66l336 -285h-58z" />
<glyph unicode="&#xe1;" horiz-adv-x="1155" d="M49 285q0 134 88.5 211.5t253.5 83.5l346 12q87 3 134 9.5t76.5 25t37.5 46t8 77.5v57q0 124 -107 178.5t-327 54.5q-223 0 -316.5 -70t-105.5 -239h-41q4 83 28.5 144.5t63.5 100.5t97.5 62.5t124 33t149.5 9.5q247 0 361 -66.5t114 -205.5v-680q0 -48 14.5 -68 t55.5 -20q45 0 96 14v-41q-35 -14 -96 -14q-111 0 -111 104v125h-4q-57 -117 -184 -189.5t-340 -72.5q-192 0 -304 81.5t-112 236.5zM90 283q0 -135 104.5 -205t272.5 -70q130 0 232.5 32.5t165.5 90t95.5 131t32.5 158.5v194h-4q-32 -54 -274 -63l-320 -12 q-156 -6 -230.5 -74t-74.5 -182zM444 1206l336 285h66l-344 -285h-58z" />
<glyph unicode="&#xe2;" horiz-adv-x="1155" d="M49 285q0 134 88.5 211.5t253.5 83.5l346 12q87 3 134 9.5t76.5 25t37.5 46t8 77.5v57q0 124 -107 178.5t-327 54.5q-223 0 -316.5 -70t-105.5 -239h-41q4 83 28.5 144.5t63.5 100.5t97.5 62.5t124 33t149.5 9.5q247 0 361 -66.5t114 -205.5v-680q0 -48 14.5 -68 t55.5 -20q45 0 96 14v-41q-35 -14 -96 -14q-111 0 -111 104v125h-4q-57 -117 -184 -189.5t-340 -72.5q-192 0 -304 81.5t-112 236.5zM90 283q0 -135 104.5 -205t272.5 -70q130 0 232.5 32.5t165.5 90t95.5 131t32.5 158.5v194h-4q-32 -54 -274 -63l-320 -12 q-156 -6 -230.5 -74t-74.5 -182zM207 1206l338 285h65l338 -285h-65l-305 256l-306 -256h-65z" />
<glyph unicode="&#xe3;" horiz-adv-x="1155" d="M49 285q0 134 88.5 211.5t253.5 83.5l346 12q87 3 134 9.5t76.5 25t37.5 46t8 77.5v57q0 124 -107 178.5t-327 54.5q-223 0 -316.5 -70t-105.5 -239h-41q4 83 28.5 144.5t63.5 100.5t97.5 62.5t124 33t149.5 9.5q247 0 361 -66.5t114 -205.5v-680q0 -48 14.5 -68 t55.5 -20q45 0 96 14v-41q-35 -14 -96 -14q-111 0 -111 104v125h-4q-57 -117 -184 -189.5t-340 -72.5q-192 0 -304 81.5t-112 236.5zM90 283q0 -135 104.5 -205t272.5 -70q130 0 232.5 32.5t165.5 90t95.5 131t32.5 158.5v194h-4q-32 -54 -274 -63l-320 -12 q-156 -6 -230.5 -74t-74.5 -182zM242 1276q12 79 60 122.5t124 43.5q40 0 88 -23l154 -80q45 -22 80 -22q42 0 77.5 30t46.5 95h41q-10 -80 -56 -123t-112 -43q-45 0 -92 24l-151 78q-45 23 -82 23q-48 0 -87 -31t-50 -94h-41z" />
<glyph unicode="&#xe4;" horiz-adv-x="1155" d="M49 285q0 134 88.5 211.5t253.5 83.5l346 12q87 3 134 9.5t76.5 25t37.5 46t8 77.5v57q0 124 -107 178.5t-327 54.5q-223 0 -316.5 -70t-105.5 -239h-41q4 83 28.5 144.5t63.5 100.5t97.5 62.5t124 33t149.5 9.5q247 0 361 -66.5t114 -205.5v-680q0 -48 14.5 -68 t55.5 -20q45 0 96 14v-41q-35 -14 -96 -14q-111 0 -111 104v125h-4q-57 -117 -184 -189.5t-340 -72.5q-192 0 -304 81.5t-112 236.5zM90 283q0 -135 104.5 -205t272.5 -70q130 0 232.5 32.5t165.5 90t95.5 131t32.5 158.5v194h-4q-32 -54 -274 -63l-320 -12 q-156 -6 -230.5 -74t-74.5 -182zM346 1219v223h41v-223h-41zM768 1219v223h41v-223h-41z" />
<glyph unicode="&#xe5;" horiz-adv-x="1155" d="M49 285q0 134 88.5 211.5t253.5 83.5l346 12q87 3 134 9.5t76.5 25t37.5 46t8 77.5v57q0 124 -107 178.5t-327 54.5q-223 0 -316.5 -70t-105.5 -239h-41q4 83 28.5 144.5t63.5 100.5t97.5 62.5t124 33t149.5 9.5q247 0 361 -66.5t114 -205.5v-680q0 -48 14.5 -68 t55.5 -20q45 0 96 14v-41q-35 -14 -96 -14q-111 0 -111 104v125h-4q-57 -117 -184 -189.5t-340 -72.5q-192 0 -304 81.5t-112 236.5zM90 283q0 -135 104.5 -205t272.5 -70q130 0 232.5 32.5t165.5 90t95.5 131t32.5 158.5v194h-4q-32 -54 -274 -63l-320 -12 q-156 -6 -230.5 -74t-74.5 -182zM381 1370q0 82 57.5 139.5t139.5 57.5t139 -57.5t57 -139.5t-57 -139t-139 -57t-139.5 57t-57.5 139zM422 1370q0 -64 46 -110t110 -46t109.5 45.5t45.5 110.5t-45.5 110.5t-109.5 45.5t-110 -46t-46 -110z" />
<glyph unicode="&#xe6;" horiz-adv-x="2158" d="M49 283q0 138 89 214.5t265 82.5l334 12q87 3 134 9.5t76.5 25t37.5 46t8 77.5v57q0 124 -107 178.5t-327 54.5q-223 0 -316.5 -70t-105.5 -239h-41q4 83 28.5 144.5t63.5 100.5t97.5 62.5t124 33t149.5 9.5q247 0 361 -66.5t114 -205.5v-59h4q58 154 197.5 242.5 t335.5 88.5q115 0 216 -38t177.5 -108t121 -176t44.5 -235h-1096q0 -230 140 -373t397 -143q403 0 502 357h41q-11 -51 -30.5 -98.5t-61.5 -104.5t-98.5 -98t-148 -69t-204.5 -28q-403 0 -547 342q-28 -89 -84 -156t-131.5 -107t-161.5 -59.5t-182 -19.5q-192 0 -304 81.5 t-112 234.5zM90 279q0 -133 104.5 -202t272.5 -69q130 0 232.5 32.5t165.5 90t95.5 131t32.5 158.5v194h-4q-17 -29 -81 -42t-220 -21l-272 -12q-95 -4 -161 -25t-101.5 -56.5t-50.5 -78.5t-13 -100zM1034 565h1055q-6 94 -43 179t-100.5 151.5t-160.5 105.5t-214 39 q-123 0 -223.5 -37.5t-166 -103.5t-103 -151t-44.5 -183z" />
<glyph unicode="&#xe7;" d="M98 524q0 159 69.5 285t202 199t306.5 73q229 0 371.5 -95t173.5 -265h-41q-73 319 -504 319q-128 0 -231.5 -41.5t-169.5 -113t-101 -164t-35 -197.5t35 -197.5t101 -164t169.5 -113t231.5 -41.5q202 0 335 89.5t177 258.5h41q-44 -182 -183.5 -285.5t-369.5 -103.5h-2 l-86 -90l4 -4q66 16 102 16q75 0 121.5 -32.5t46.5 -92.5q0 -153 -213 -153q-129 0 -237 43l16 39q96 -41 221 -41q89 0 130.5 26.5t41.5 83.5q0 41 -33.5 63.5t-93.5 22.5q-100 0 -149 -28l-35 24l115 127q-242 15 -384.5 169t-142.5 384z" />
<glyph unicode="&#xe8;" horiz-adv-x="1214" d="M49 524q0 159 69.5 285t202 199t306.5 73q115 0 216 -38t177.5 -108t121 -176t44.5 -235h-1096q0 -105 35 -197.5t101 -164t169.5 -113t231.5 -41.5q402 0 501 357h41q-11 -51 -30.5 -98.5t-61 -104.5t-98 -98t-148 -69t-204.5 -28q-174 0 -306.5 73t-202 199t-69.5 285z M90 565h1055q-6 94 -43 179t-100.5 151.5t-160.5 105.5t-214 39q-123 0 -223.5 -37.5t-166 -103.5t-103 -151t-44.5 -183zM340 1491h66l335 -285h-57z" />
<glyph unicode="&#xe9;" horiz-adv-x="1214" d="M49 524q0 159 69.5 285t202 199t306.5 73q115 0 216 -38t177.5 -108t121 -176t44.5 -235h-1096q0 -105 35 -197.5t101 -164t169.5 -113t231.5 -41.5q402 0 501 357h41q-11 -51 -30.5 -98.5t-61 -104.5t-98 -98t-148 -69t-204.5 -28q-174 0 -306.5 73t-202 199t-69.5 285z M90 565h1055q-6 94 -43 179t-100.5 151.5t-160.5 105.5t-214 39q-123 0 -223.5 -37.5t-166 -103.5t-103 -151t-44.5 -183zM475 1206l336 285h66l-345 -285h-57z" />
<glyph unicode="&#xea;" horiz-adv-x="1214" d="M49 524q0 159 69.5 285t202 199t306.5 73q115 0 216 -38t177.5 -108t121 -176t44.5 -235h-1096q0 -105 35 -197.5t101 -164t169.5 -113t231.5 -41.5q402 0 501 357h41q-11 -51 -30.5 -98.5t-61 -104.5t-98 -98t-148 -69t-204.5 -28q-174 0 -306.5 73t-202 199t-69.5 285z M90 565h1055q-6 94 -43 179t-100.5 151.5t-160.5 105.5t-214 39q-123 0 -223.5 -37.5t-166 -103.5t-103 -151t-44.5 -183zM238 1206l337 285h66l338 -285h-66l-305 256l-305 -256h-65z" />
<glyph unicode="&#xeb;" horiz-adv-x="1214" d="M49 524q0 159 69.5 285t202 199t306.5 73q115 0 216 -38t177.5 -108t121 -176t44.5 -235h-1096q0 -105 35 -197.5t101 -164t169.5 -113t231.5 -41.5q402 0 501 357h41q-11 -51 -30.5 -98.5t-61 -104.5t-98 -98t-148 -69t-204.5 -28q-174 0 -306.5 73t-202 199t-69.5 285z M90 565h1055q-6 94 -43 179t-100.5 151.5t-160.5 105.5t-214 39q-123 0 -223.5 -37.5t-166 -103.5t-103 -151t-44.5 -183zM377 1219v223h41v-223h-41zM799 1219v223h41v-223h-41z" />
<glyph unicode="&#xec;" horiz-adv-x="266" d="M-135 1491h65l336 -285h-57zM113 0v1049h41v-1049h-41z" />
<glyph unicode="&#xed;" horiz-adv-x="266" d="M0 1206l336 285h65l-344 -285h-57zM113 0v1049h41v-1049h-41z" />
<glyph unicode="&#xee;" horiz-adv-x="266" d="M-238 1206l338 285h66l338 -285h-66l-305 256l-305 -256h-66zM113 0v1049h41v-1049h-41z" />
<glyph unicode="&#xef;" horiz-adv-x="266" d="M-98 1219v223h41v-223h-41zM113 0v1049h41v-1049h-41zM324 1219v223h41v-223h-41z" />
<glyph unicode="&#xf0;" horiz-adv-x="1253" d="M49 524q0 159 69.5 285t202 199t306.5 73q377 0 512 -303l4 4q-85 406 -434 588l-244 -129l-31 31l230 123q-135 69 -312 100l33 41q178 -39 328 -113l237 123l33 -30l-227 -121q99 -57 177.5 -133t141 -179t96 -239.5t33.5 -298.5q0 -264 -155.5 -421t-421.5 -157 q-174 0 -306.5 73t-202 199t-69.5 285zM90 524q0 -105 35 -197.5t101 -164t169.5 -113t231.5 -41.5t231.5 41.5t169 113t100.5 164t35 197.5t-35 197.5t-100.5 164t-169 113t-231.5 41.5t-231.5 -41.5t-169.5 -113t-101 -164t-35 -197.5z" />
<glyph unicode="&#xf1;" horiz-adv-x="1214" d="M113 0v1049h41v-236h4q118 268 473 268q116 0 202.5 -25.5t137 -64.5t81 -97t40.5 -113t10 -122v-659h-41v659q0 60 -8 108t-35 101.5t-72.5 89t-125.5 59t-189 23.5q-90 0 -163.5 -18.5t-122 -47t-85 -70t-56 -81.5t-31.5 -87t-15.5 -80.5t-3.5 -67.5v-588h-41z M272 1276q12 78 60.5 122t124.5 44q40 0 88 -23l153 -80q45 -22 80 -22q43 0 78.5 30t46.5 95h41q-10 -80 -56 -123t-112 -43q-45 0 -92 24l-152 78q-45 23 -81 23q-48 0 -87.5 -31t-50.5 -94h-41z" />
<glyph unicode="&#xf2;" horiz-adv-x="1253" d="M49 524q0 159 69.5 285t202 199t306.5 73q131 0 240 -42.5t182.5 -116.5t114 -176.5t40.5 -221.5t-40.5 -221.5t-114 -176.5t-182.5 -116.5t-240 -42.5q-174 0 -306.5 73t-202 199t-69.5 285zM90 524q0 -105 35 -197.5t101 -164t169.5 -113t231.5 -41.5t231.5 41.5 t169 113t100.5 164t35 197.5t-35 197.5t-100.5 164t-169 113t-231.5 41.5t-231.5 -41.5t-169.5 -113t-101 -164t-35 -197.5zM358 1491h66l336 -285h-58z" />
<glyph unicode="&#xf3;" horiz-adv-x="1253" d="M49 524q0 159 69.5 285t202 199t306.5 73q131 0 240 -42.5t182.5 -116.5t114 -176.5t40.5 -221.5t-40.5 -221.5t-114 -176.5t-182.5 -116.5t-240 -42.5q-174 0 -306.5 73t-202 199t-69.5 285zM90 524q0 -105 35 -197.5t101 -164t169.5 -113t231.5 -41.5t231.5 41.5 t169 113t100.5 164t35 197.5t-35 197.5t-100.5 164t-169 113t-231.5 41.5t-231.5 -41.5t-169.5 -113t-101 -164t-35 -197.5zM494 1206l335 285h66l-344 -285h-57z" />
<glyph unicode="&#xf4;" horiz-adv-x="1253" d="M49 524q0 159 69.5 285t202 199t306.5 73q131 0 240 -42.5t182.5 -116.5t114 -176.5t40.5 -221.5t-40.5 -221.5t-114 -176.5t-182.5 -116.5t-240 -42.5q-174 0 -306.5 73t-202 199t-69.5 285zM90 524q0 -105 35 -197.5t101 -164t169.5 -113t231.5 -41.5t231.5 41.5 t169 113t100.5 164t35 197.5t-35 197.5t-100.5 164t-169 113t-231.5 41.5t-231.5 -41.5t-169.5 -113t-101 -164t-35 -197.5zM256 1206l338 285h65l338 -285h-65l-305 256l-305 -256h-66z" />
<glyph unicode="&#xf5;" horiz-adv-x="1253" d="M49 524q0 159 69.5 285t202 199t306.5 73q131 0 240 -42.5t182.5 -116.5t114 -176.5t40.5 -221.5t-40.5 -221.5t-114 -176.5t-182.5 -116.5t-240 -42.5q-174 0 -306.5 73t-202 199t-69.5 285zM90 524q0 -105 35 -197.5t101 -164t169.5 -113t231.5 -41.5t231.5 41.5 t169 113t100.5 164t35 197.5t-35 197.5t-100.5 164t-169 113t-231.5 41.5t-231.5 -41.5t-169.5 -113t-101 -164t-35 -197.5zM291 1276q12 79 60 122.5t124 43.5q40 0 88 -23l154 -80q45 -22 80 -22q43 0 78.5 30t46.5 95h41q-10 -80 -56 -123t-112 -43q-46 0 -93 24l-151 78 q-45 23 -82 23q-48 0 -87 -31t-50 -94h-41z" />
<glyph unicode="&#xf6;" horiz-adv-x="1253" d="M49 524q0 159 69.5 285t202 199t306.5 73q131 0 240 -42.5t182.5 -116.5t114 -176.5t40.5 -221.5t-40.5 -221.5t-114 -176.5t-182.5 -116.5t-240 -42.5q-174 0 -306.5 73t-202 199t-69.5 285zM90 524q0 -105 35 -197.5t101 -164t169.5 -113t231.5 -41.5t231.5 41.5 t169 113t100.5 164t35 197.5t-35 197.5t-100.5 164t-169 113t-231.5 41.5t-231.5 -41.5t-169.5 -113t-101 -164t-35 -197.5zM395 1219v223h41v-223h-41zM817 1219v223h41v-223h-41z" />
<glyph unicode="&#xf7;" horiz-adv-x="1228" d="M96 498v41h1037v-41h-1037zM535 82q0 34 23.5 58t57.5 24t58 -24t24 -58t-24 -58t-58 -24t-57.5 24t-23.5 58zM535 954q0 34 23.5 58t57.5 24t58 -24t24 -58t-24 -58t-58 -24t-57.5 24t-23.5 58z" />
<glyph unicode="&#xf8;" horiz-adv-x="1253" d="M49 524q0 159 69.5 285t202 199t306.5 73q243 0 403 -141l146 139l24 -24l-145 -140q149 -155 149 -391q0 -119 -40.5 -221.5t-114 -176.5t-182.5 -116.5t-240 -42.5q-249 0 -404 142l-145 -140l-25 25l146 141q-150 153 -150 389zM90 524q0 -219 137 -362l774 749 q-145 129 -374 129q-128 0 -231.5 -41.5t-169.5 -113t-101 -164t-35 -197.5zM252 137q145 -129 375 -129q128 0 231.5 41.5t169 113t100.5 164t35 197.5q0 106 -35 200.5t-102 162.5z" />
<glyph unicode="&#xf9;" horiz-adv-x="1214" d="M113 389v660h41v-660q0 -60 8 -108t35 -101.5t72.5 -89t125.5 -59t189 -23.5q89 0 162.5 18.5t122 48t85 71t56.5 81t32 85t15.5 77t3.5 62.5v598h41v-1049h-41v236l-4 -5q-116 -264 -473 -264q-116 0 -202.5 25.5t-137 64.5t-81 97t-40.5 113t-10 122zM340 1491h66 l335 -285h-57z" />
<glyph unicode="&#xfa;" horiz-adv-x="1214" d="M113 389v660h41v-660q0 -60 8 -108t35 -101.5t72.5 -89t125.5 -59t189 -23.5q89 0 162.5 18.5t122 48t85 71t56.5 81t32 85t15.5 77t3.5 62.5v598h41v-1049h-41v236l-4 -5q-116 -264 -473 -264q-116 0 -202.5 25.5t-137 64.5t-81 97t-40.5 113t-10 122zM475 1206l336 285 h66l-345 -285h-57z" />
<glyph unicode="&#xfb;" horiz-adv-x="1214" d="M113 389v660h41v-660q0 -60 8 -108t35 -101.5t72.5 -89t125.5 -59t189 -23.5q89 0 162.5 18.5t122 48t85 71t56.5 81t32 85t15.5 77t3.5 62.5v598h41v-1049h-41v236l-4 -5q-116 -264 -473 -264q-116 0 -202.5 25.5t-137 64.5t-81 97t-40.5 113t-10 122zM238 1206l337 285 h66l338 -285h-66l-305 256l-305 -256h-65z" />
<glyph unicode="&#xfc;" horiz-adv-x="1214" d="M113 389v660h41v-660q0 -60 8 -108t35 -101.5t72.5 -89t125.5 -59t189 -23.5q89 0 162.5 18.5t122 48t85 71t56.5 81t32 85t15.5 77t3.5 62.5v598h41v-1049h-41v236l-4 -5q-116 -264 -473 -264q-116 0 -202.5 25.5t-137 64.5t-81 97t-40.5 113t-10 122zM377 1219v223h41 v-223h-41zM799 1219v223h41v-223h-41z" />
<glyph unicode="&#xfd;" horiz-adv-x="1024" d="M-27 1049h54l510 -998l460 998h54l-557 -1188q-63 -134 -120.5 -174.5t-174.5 -40.5h-82v41h94q89 0 137.5 33t93.5 130l70 152zM379 1206l336 285h65l-344 -285h-57z" />
<glyph unicode="&#xfe;" horiz-adv-x="1253" d="M113 -414v1876h41v-696h4q58 154 187.5 234.5t311.5 80.5q111 0 202 -29.5t154.5 -81.5t107 -123t63.5 -152t20 -171t-20 -171t-63.5 -152t-107 -123t-154.5 -81.5t-202 -29.5t-204 29t-173.5 102.5t-121.5 186.5h-4v-699h-41zM154 524q0 -104 29.5 -194.5t88 -163.5 t157.5 -115.5t228 -42.5q130 0 229.5 42.5t158.5 115.5t88.5 163.5t29.5 194.5t-29.5 194.5t-88.5 163.5t-158.5 115.5t-229.5 42.5q-129 0 -228 -42.5t-157.5 -115.5t-88 -163.5t-29.5 -194.5z" />
<glyph unicode="&#xff;" horiz-adv-x="1024" d="M-27 1049h54l510 -998l460 998h54l-557 -1188q-63 -134 -120.5 -174.5t-174.5 -40.5h-82v41h94q89 0 137.5 33t93.5 130l70 152zM281 1219v223h41v-223h-41zM702 1219v223h41v-223h-41z" />
<glyph unicode="&#x152;" horiz-adv-x="2390" d="M57 731q0 177 59.5 322.5t162.5 241.5t241 148t295 52q300 0 510 -178v145h1049v-41h-1008v-639h928v-41h-928v-700h1008v-41h-1049v145q-101 -88 -233.5 -133t-276.5 -45q-157 0 -295 52t-241 148t-162.5 241.5t-59.5 322.5zM98 731q0 -137 38 -254.5t105 -203t157 -146 t196 -90t221 -29.5q272 0 485 168q25 19 25 47v1016q0 25 -33 51q-196 164 -477 164q-115 0 -221 -29.5t-196 -90t-157 -146t-105 -203t-38 -254.5z" />
<glyph unicode="&#x153;" horiz-adv-x="2158" d="M49 524q0 127 42 233t114 176.5t168.5 109t206.5 38.5q189 0 327.5 -106t179.5 -289h5q38 181 168 288t342 107q121 0 215.5 -33.5t152 -87t95 -128t51.5 -149.5t14 -159h-1020q1 -113 29.5 -203t75 -148t110.5 -96t131.5 -53.5t142.5 -15.5q112 0 201 29.5t144.5 80.5 t88 109t46.5 125h41q-24 -128 -101 -217t-182 -128.5t-231 -39.5t-229 38.5t-179.5 125.5t-105.5 215h-5q-29 -99 -84 -174t-124.5 -118.5t-144.5 -65t-154 -21.5q-110 0 -206.5 38.5t-168.5 109t-114 176.5t-42 233zM90 524q0 -159 68 -278t178 -178.5t244 -59.5 q99 0 187.5 35t156 99.5t106.5 163t39 218.5q-1 120 -40 219t-106 163t-155 99t-188 35q-134 0 -244 -59.5t-178 -178.5t-68 -278zM1110 565h979q-2 64 -15.5 124t-48 126t-87.5 114t-141 79.5t-200 31.5q-95 0 -175.5 -26.5t-147 -82t-109.5 -148.5t-55 -218z" />
<glyph unicode="&#x178;" horiz-adv-x="1290" d="M-66 1462h60l651 -800l651 800h60l-690 -846v-616h-41v616zM414 1581v223h41v-223h-41zM836 1581v223h41v-223h-41z" />
<glyph unicode="&#x2c6;" horiz-adv-x="266" d="M-238 1206l338 285h66l338 -285h-66l-305 256l-305 -256h-66z" />
<glyph unicode="&#x2dc;" horiz-adv-x="266" d="M-203 1276q12 78 60.5 122t124.5 44q40 0 88 -23l153 -80q45 -22 80 -22q43 0 78.5 30t46.5 95h41q-10 -80 -56 -123t-112 -43q-45 0 -92 24l-152 78q-45 23 -82 23q-48 0 -87 -31t-50 -94h-41z" />
<glyph unicode="&#x2000;" horiz-adv-x="959" />
<glyph unicode="&#x2001;" horiz-adv-x="1919" />
<glyph unicode="&#x2002;" horiz-adv-x="959" />
<glyph unicode="&#x2003;" horiz-adv-x="1919" />
<glyph unicode="&#x2004;" horiz-adv-x="639" />
<glyph unicode="&#x2005;" horiz-adv-x="479" />
<glyph unicode="&#x2006;" horiz-adv-x="319" />
<glyph unicode="&#x2007;" horiz-adv-x="319" />
<glyph unicode="&#x2008;" horiz-adv-x="239" />
<glyph unicode="&#x2009;" horiz-adv-x="383" />
<glyph unicode="&#x200a;" horiz-adv-x="106" />
<glyph unicode="&#x2010;" horiz-adv-x="757" d="M160 524v41h438v-41h-438z" />
<glyph unicode="&#x2011;" horiz-adv-x="757" d="M160 524v41h438v-41h-438z" />
<glyph unicode="&#x2012;" horiz-adv-x="757" d="M160 524v41h438v-41h-438z" />
<glyph unicode="&#x2013;" horiz-adv-x="1024" d="M0 524v41h1024v-41h-1024z" />
<glyph unicode="&#x2014;" horiz-adv-x="2048" d="M0 524v41h2048v-41h-2048z" />
<glyph unicode="&#x2018;" horiz-adv-x="344" d="M152 1020v194q0 95 20 153.5t78 94.5v-53q-57 -37 -57 -180v-209h-41z" />
<glyph unicode="&#x2019;" horiz-adv-x="344" d="M94 1020v53q58 37 58 180v209h41v-194q0 -95 -20 -153.5t-79 -94.5z" />
<glyph unicode="&#x201a;" horiz-adv-x="344" d="M94 -193q58 37 58 181v209h41v-195q0 -95 -20 -153.5t-79 -94.5v53z" />
<glyph unicode="&#x201c;" horiz-adv-x="606" d="M152 1020v194q0 95 20 153.5t78 94.5v-53q-57 -37 -57 -180v-209h-41zM414 1020v194q0 95 20 153.5t78 94.5v-53q-57 -37 -57 -180v-209h-41z" />
<glyph unicode="&#x201d;" horiz-adv-x="606" d="M94 1020v53q58 37 58 180v209h41v-194q0 -95 -20 -153.5t-79 -94.5zM356 1020v53q58 37 58 180v209h41v-194q0 -95 -20 -153.5t-79 -94.5z" />
<glyph unicode="&#x201e;" horiz-adv-x="606" d="M94 -193q58 37 58 181v209h41v-195q0 -95 -20 -153.5t-79 -94.5v53zM356 -193q58 37 58 181v209h41v-195q0 -95 -20 -153.5t-79 -94.5v53z" />
<glyph unicode="&#x2022;" horiz-adv-x="1024" d="M147 729q0 151 107 258t258 107t258 -107t107 -258t-107 -257.5t-258 -106.5t-258 106.5t-107 257.5z" />
<glyph unicode="&#x2026;" horiz-adv-x="2048" d="M322 0v197h40v-197h-40zM1004 0v197h40v-197h-40zM1686 0v197h40v-197h-40z" />
<glyph unicode="&#x202f;" horiz-adv-x="383" />
<glyph unicode="&#x2039;" horiz-adv-x="569" d="M147 526v37l242 283v-51l-213 -250l213 -250v-51z" />
<glyph unicode="&#x203a;" horiz-adv-x="569" d="M180 244v51l213 250l-213 250v51l242 -283v-37z" />
<glyph unicode="&#x205f;" horiz-adv-x="479" />
<glyph unicode="&#x20ac;" d="M33 610l22 41h152q-2 10 -2 31v33q0 74 8 131h-180l22 41h164q50 270 229.5 426.5t452.5 156.5q113 0 202 -25t185 -85l-20 -33q-90 55 -177 79t-194 24q-249 0 -419.5 -148t-211.5 -395h846l-25 -41h-827q-8 -57 -8 -129v-33q0 -23 2 -33h774l-22 -41h-748 q25 -268 199 -435t440 -167q122 0 210.5 35.5t201.5 116.5v-51q-97 -74 -194.5 -107t-219.5 -33q-285 0 -473 177.5t-213 463.5h-176z" />
<glyph unicode="&#x2122;" horiz-adv-x="2027" d="M86 1421v41h651v-41h-305v-803h-41v803h-305zM926 618v844h67l338 -790l338 790h68v-844h-41v803h-4l-340 -803h-41l-340 803h-4v-803h-41z" />
<glyph unicode="&#x25fc;" horiz-adv-x="1044" d="M0 0v1044h1044v-1044h-1044z" />
<glyph unicode="&#xfb01;" horiz-adv-x="872" d="M2 1008v41h250v206q0 53 14 92.5t37 63.5t59 38.5t74 20t88 5.5q6 0 123 -5v-40q-39 4 -117 4q-73 0 -119.5 -11.5t-72.5 -37.5t-35.5 -61.5t-9.5 -90.5v-184h305v-41h-305v-1008h-41v1008h-250zM719 0v1049h41v-1049h-41zM719 1239v223h41v-223h-41z" />
<glyph unicode="&#xfb02;" horiz-adv-x="872" d="M2 1008v41h250v206q0 53 14 92.5t37 63.5t59 38.5t74 20t88 5.5q6 0 123 -5v-40q-39 4 -117 4q-73 0 -119.5 -11.5t-72.5 -37.5t-35.5 -61.5t-9.5 -90.5v-184h305v-41h-305v-1008h-41v1008h-250zM719 0v1462h41v-1462h-41z" />
</font>
</defs>
</svg>
