<?xml version="1.0" encoding="UTF-8"?>
<svg width="332px" height="368px" viewBox="0 0 332 368" version="1.1" xmlns="http://www.w3.org/2000/svg" xmlns:xlink="http://www.w3.org/1999/xlink">
    <!-- Generator: Sketch 46.2 (44496) - http://www.bohemiancoding.com/sketch -->
    <title>anonymous-logo</title>
    <desc>Created with Sketch.</desc>
    <defs></defs>
    <g id="Page-1" stroke="none" stroke-width="1" fill="none" fill-rule="evenodd">
        <g id="anonymous-logo" transform="translate(-2.000000, 0.000000)" fill="#D80027">
            <path d="M185.126,34.594 C187.819,36.552 193.909,36.36 197.405,32.164 C199.38,29.787 216.475,11.858 240.473,11.858 C271.289,11.858 282.756,22.17 282.756,22.17 C271.795,2.42 248.12,0 241.243,0 C207.77,0 188.666,15.962 183.693,22.735 C178.712,29.509 182.67,32.802 185.126,34.594 Z M280.001,89.492 C275.706,89.492 275.526,96.516 275.526,98.441 C275.524,111.029 268.414,123.295 262.102,129.763 C243.942,148.371 214.202,132.027 214.202,132.027 C209.185,129.999 214.647,135.029 214.647,135.029 C217.504,137.991 225.685,147.102 241.739,149.147 C240.996,149.933 221.769,170.034 221.769,170.034 L203.871,170.034 L185.973,143.187 C181.218,149.479 177.024,152.136 168.074,152.136 C163.164,152.136 157.587,151.296 153.671,146.963 C149.992,142.894 150.176,137.537 150.176,134.238 C150.158,120.813 150.176,86.66 150.176,80.543 L150.176,65.16 C150.176,57.33 141.385,50.111 141.385,50.111 C130.95,42.953 123.565,59.078 123.565,59.078 L123.451,59.165 C114.869,56.046 105.796,54.14 96.253,54.14 C84.568,54.14 70.891,55.425 60.683,59.943 C60.683,57.392 60.683,53.694 60.683,53.694 C60.683,-10.44 129.865,31.627 139.609,35.106 C148.699,38.339 146.863,27.891 145.281,26.148 C123.469,2.097 86.414,0 86.414,0 C35.743,0 33.899,49.622 33.899,71.593 L33.899,118.131 C33.899,174.881 106.288,272.558 151.27,279.994 C151.052,280.098 156.05,281.279 158.06,282.738 C158.138,282.791 158.269,282.738 158.34,282.782 C160.927,284.94 164.186,286.375 167.847,286.375 C171.405,286.375 174.534,284.994 177.068,282.966 C177.068,282.966 180.231,281.139 184.881,279.645 C190.194,278.237 199.293,272.715 204.947,268.179 C227.889,249.778 251.039,221.305 267.129,180.251 C267.129,180.251 269.288,170.594 266.517,170.035 C264.052,169.536 262.418,170.07 255.759,182.043 C230.344,227.746 195.062,258.688 177.025,259.528 L177.025,223.73 C188.439,221.973 208.767,212.936 222.497,200.465 C231.446,192.328 215.383,194.181 212.822,195.222 C201.854,199.644 199.634,205.831 168.075,205.831 C137.977,205.831 120,193.15 114.38,187.933 C131.02,187.933 150.177,187.933 150.177,187.933 L168.075,170.034 L185.974,187.933 C185.974,187.933 207.027,187.933 221.771,187.933 L254.325,149.287 C281.671,146.866 284.476,115.188 284.476,111.865 C284.476,104.943 284.476,105.076 284.476,98.441 C284.476,96.33 284.404,89.492 280.001,89.492 Z M114.795,207.538 C138.825,222.659 151.258,222.581 159.126,223.729 L159.126,259.526 C116.727,248.696 114.327,218.013 114.795,207.538 Z M129.018,113.656 C122.341,143.187 88.948,143.187 88.948,143.187 C69.136,143.187 60.685,133.031 60.685,106.183 L60.685,66.371 C70.893,70.898 84.57,74.747 96.255,74.747 C106.594,74.747 116.409,72.615 125.612,68.987 C125.638,68.987 125.663,68.996 125.663,68.996 C129.046,68.996 130.933,71.644 130.933,71.644 C130.933,71.644 136.456,80.726 129.018,113.656 Z M192.774,64.444 C204.676,70.832 217.891,74.748 232.022,74.748 C246.171,74.748 259.376,70.833 271.289,64.444 C259.376,58.055 246.171,54.14 232.022,54.14 C217.89,54.14 204.676,58.055 192.774,64.444 Z" id="Shape"></path>
            <text id="Anonymous" font-family="NeutrafaceText-DemiAlt, Neutraface Text" font-size="68" font-weight="500">
                <tspan x="0.03" y="353">Anonymous</tspan>
            </text>
        </g>
    </g>
</svg>