<svg width="122" height="99" viewBox="0 0 122 99" xmlns="http://www.w3.org/2000/svg"><g fill="none" fill-rule="evenodd"><path d="M32.799 11L7.479 23.82s-3.265 1.714-3.265 3.775h28.585V11M89.846 11l25.32 12.821s3.265 1.714 3.265 3.775H89.846V11M38.97 8.359v19.237h44.723l-.017-19.237s-8.041-3.735-14.997-6.9c-6.955-3.166-14.335 0-14.335 0l-15.375 6.9M32.799 88.008L7.479 75.186s-3.265-1.713-3.265-3.774h28.585v16.596M89.846 88.008l25.32-12.822s3.265-1.713 3.265-3.774H89.846v16.596M38.97 90.649V71.412h44.723l-.017 19.237s-8.041 3.735-14.997 6.9c-6.955 3.165-14.335 0-14.335 0l-15.375-6.9M18.909 59.79v-1.738h-8.595v2.966h3.544c-.224.982-.977 1.76-3.265 1.76-2.512 0-3.768-1.187-3.768-4.03 0-2.272.865-3.93 3.405-3.93 1.87 0 2.651.737 3.293 1.965l4.911-1.412c-1.395-2.68-3.293-4.01-8.176-4.01-5.916 0-9.098 3.15-9.098 7.386 0 4.685 3.656 7.386 9.014 7.386 5.665 0 8.735-2.25 8.735-6.343zm21.24 6.118L33.06 51.586h-5.47l-7.088 14.322h5.805l1.06-2.516h5.86l1.061 2.516h5.86zm-8.233-5.667h-3.237l.363-.941c.697-1.821 1.004-2.62 1.255-3.581.252.962.559 1.74 1.256 3.58l.363.942zm27.766 5.667l-3.906-5.463c2.148-.716 3.516-2.046 3.516-4.194 0-3.396-3.042-4.665-7.619-4.665H42.94v14.322h5.33V61.08h2.177l3.18 4.828h6.056zm-5.776-9.555c0 1.023-.698 1.596-2.456 1.596H48.27v-3.13h3.265c1.702 0 2.372.634 2.372 1.534zm27.072 9.555l-7.089-14.322h-5.47l-7.087 14.322h5.804l1.06-2.516h5.86l1.061 2.516h5.86zm-8.233-5.667h-3.237l.363-.941c.698-1.821 1.005-2.62 1.256-3.581.251.962.558 1.74 1.255 3.58l.363.942zm28.158 5.667V51.586h-5.191v3.908c0 1.166.028 3.069.167 3.703-.418-.593-2.148-2.496-3.041-3.376l-4.298-4.235h-4.772v14.322h5.19V61.53c0-1.167-.027-3.07-.167-3.704.502.635 2.177 2.476 3.042 3.356l4.66 4.726h4.41zm19.506-10.864v-3.458h-16.353v3.458h5.47v10.864h5.413V55.044h5.47z" fill="#003765"></path><path d="M18.909 59.79v-1.738h-8.595v2.966h3.544c-.224.982-.977 1.76-3.265 1.76-2.512 0-3.768-1.187-3.768-4.03 0-2.272.865-3.93 3.405-3.93 1.87 0 2.651.737 3.293 1.965l4.911-1.412c-1.395-2.68-3.293-4.01-8.176-4.01-5.916 0-9.098 3.15-9.098 7.386 0 4.685 3.656 7.386 9.014 7.386 5.665 0 8.735-2.25 8.735-6.343zm21.24 6.118L33.06 51.586h-5.47l-7.088 14.322h5.805l1.06-2.516h5.86l1.061 2.516h5.86zm-8.233-5.667h-3.237l.363-.941c.697-1.821 1.004-2.62 1.255-3.581.252.962.559 1.74 1.256 3.58l.363.942zm27.766 5.667l-3.906-5.463c2.148-.716 3.516-2.046 3.516-4.194 0-3.396-3.042-4.665-7.619-4.665H42.94v14.322h5.33V61.08h2.177l3.18 4.828h6.056zm-5.776-9.555c0 1.023-.698 1.596-2.456 1.596H48.27v-3.13h3.265c1.702 0 2.372.634 2.372 1.534zm27.072 9.555l-7.089-14.322h-5.47l-7.087 14.322h5.804l1.06-2.516h5.86l1.061 2.516h5.86zm-8.233-5.667h-3.237l.363-.941c.698-1.821 1.005-2.62 1.256-3.581.251.962.558 1.74 1.255 3.58l.363.942zm28.158 5.667V51.586h-5.191v3.908c0 1.166.028 3.069.167 3.703-.418-.593-2.148-2.496-3.041-3.376l-4.298-4.235h-4.772v14.322h5.19V61.53c0-1.167-.027-3.07-.167-3.704.502.635 2.177 2.476 3.042 3.356l4.66 4.726h4.41zm19.506-10.864v-3.458h-16.353v3.458h5.47v10.864h5.413V55.044h5.47z"></path><path d="M26.44 42.837c0-1.617-1.507-2.619-4.074-3.171 1.915-.553 3.423-1.248 3.423-2.803 0-2.394-2.893-3.724-9.982-3.724H2.035V47.46h13.69c7.17 0 10.715-1.698 10.715-4.624zm-8.393-5.442c0 .675-.651 1.125-2.485 1.125H9.613v-2.25h5.949c1.874 0 2.485.49 2.485 1.125zm.652 5.524c0 .818-.896 1.411-2.852 1.411H9.613v-2.782h6.275c1.874 0 2.811.532 2.811 1.37zm36.258-2.64c0-4.767-5.419-7.365-13.16-7.365-7.741 0-13.241 2.64-13.241 7.406 0 4.768 5.418 7.366 13.16 7.366 7.74 0 13.241-2.64 13.241-7.407zm-8.19.041c0 2.578-1.792 3.908-4.97 3.908s-5.052-1.37-5.052-3.949c0-2.578 1.793-3.907 4.97-3.907 3.179 0 5.053 1.37 5.053 3.948zm36.425 1.023V33.14h-8.067v8.204c0 1.76-1.304 2.844-4.4 2.844-3.097 0-4.482-1.084-4.482-2.844V33.14h-8.067v8.204c0 4.543 5.256 6.343 12.426 6.343 7.171 0 12.59-1.8 12.59-6.343zm37.687-8.204h-8.067l-.774 2.394c-.652 2.025-1.426 4.521-1.712 6.22-.326-1.678-1.222-4.154-2.118-6.2l-.978-2.414h-7.252L99 35.553c-.897 2.046-1.793 4.522-2.119 6.2-.285-1.699-1.06-4.195-1.711-6.22l-.774-2.394h-8.149l6.804 14.322h7.212l1.304-3.11c.937-2.21 1.792-4.89 1.955-5.933.163 1.043 1.019 3.723 1.956 5.933l1.304 3.11h7.293l6.804-14.322z" fill="#003765"></path><path d="M26.44 42.837c0-1.617-1.507-2.619-4.074-3.171 1.915-.553 3.423-1.248 3.423-2.803 0-2.394-2.893-3.724-9.982-3.724H2.035V47.46h13.69c7.17 0 10.715-1.698 10.715-4.624zm-8.393-5.442c0 .675-.651 1.125-2.485 1.125H9.613v-2.25h5.949c1.874 0 2.485.49 2.485 1.125zm.652 5.524c0 .818-.896 1.411-2.852 1.411H9.613v-2.782h6.275c1.874 0 2.811.532 2.811 1.37zm36.258-2.64c0-4.767-5.419-7.365-13.16-7.365-7.741 0-13.241 2.64-13.241 7.406 0 4.768 5.418 7.366 13.16 7.366 7.74 0 13.241-2.64 13.241-7.407zm-8.19.041c0 2.578-1.792 3.908-4.97 3.908s-5.052-1.37-5.052-3.949c0-2.578 1.793-3.907 4.97-3.907 3.179 0 5.053 1.37 5.053 3.948zm36.425 1.023V33.14h-8.067v8.204c0 1.76-1.304 2.844-4.4 2.844-3.097 0-4.482-1.084-4.482-2.844V33.14h-8.067v8.204c0 4.543 5.256 6.343 12.426 6.343 7.171 0 12.59-1.8 12.59-6.343zm37.687-8.204h-8.067l-.774 2.394c-.652 2.025-1.426 4.521-1.712 6.22-.326-1.678-1.222-4.154-2.118-6.2l-.978-2.414h-7.252L99 35.553c-.897 2.046-1.793 4.522-2.119 6.2-.285-1.699-1.06-4.195-1.711-6.22l-.774-2.394h-8.149l6.804 14.322h7.212l1.304-3.11c.937-2.21 1.792-4.89 1.955-5.933.163 1.043 1.019 3.723 1.956 5.933l1.304 3.11h7.293l6.804-14.322z"></path></g></svg>