<?xml version="1.0" encoding="utf-8"?>
<!-- Generator: Adobe Illustrator 23.0.1, SVG Export Plug-In . SVG Version: 6.00 Build 0)  -->
<svg version="1.1" id="Laag_1" xmlns="http://www.w3.org/2000/svg" xmlns:xlink="http://www.w3.org/1999/xlink" x="0px" y="0px"
	 viewBox="0 0 414 126" style="enable-background:new 0 0 414 126;" xml:space="preserve">
<style type="text/css">
	.st0{fill:#007A3E;stroke:#007A3E;stroke-miterlimit:1;}
	.st1{fill:none;stroke:#007A3E;stroke-miterlimit:1;}
	.st2{fill:#FFFFFF;stroke:#007A3E;stroke-miterlimit:1;}
</style>
<path d="M153.7,49.7c0.4-0.6,1.6,0,2.3-0.5c-0.2-4.2-0.2-8.8-0.2-13.2c-0.6-0.5-1.9,0.2-2.2-0.8l0.1-4.5l0.3-0.2h13.5
	c2.8,0.2,6,1.2,7.2,4.1c0.8,1.7,0.5,4-0.4,5.5c-0.5,0.8-1.4,1.4-2.3,1.8c-0.1,0.1-0.2,0.3-0.2,0.5c2,0.6,4,2.2,4.5,4.3
	c0.4,1.7,0.1,3.6-0.8,4.9c-0.5,0.9-1.2,1.5-2,2.1c-2.5,1.4-5.5,1.4-8.4,1.5L154.1,55c-0.7-0.3-0.2-1.3-0.5-1.9L153.7,49.7z
	 M164.3,46.7c0.2,0.8-0.2,1.9,0.3,2.7c1.2,0.2,2.9,0,3.6-1.1c0.1-0.8,0.2-1.6-0.2-2.3c-0.7-1.1-2.1-1.2-3.3-1.2
	C164,45.1,164.5,46,164.3,46.7z M164.3,39.2c0.1,0.1,0,0.4,0.2,0.5c1,0.2,2.3,0.2,2.9-0.7c0.6-0.6,0.4-1.6,0.1-2.3
	c-0.3-0.6-0.8-0.6-1.3-0.9c-0.7-0.1-1.4-0.4-1.9,0.1L164.3,39.2z"/>
<path d="M153.9,90.8c0.9,0,1.6,0.2,2.4-0.3c-0.4-5.2,0-10.2-0.2-15.2c-0.1-0.4,0.1-0.9-0.2-1.1c-0.7-0.3-1.6,0.1-2.3-0.3
	c-0.2-1.9-0.1-4-0.1-5.9c0.2-0.7,0.8-0.3,1.2-0.3l2.2-0.1l11.8-0.1l0.2,0.2c0,2,0.1,4,0,6c-0.8,0.6-2.1-0.4-2.6,0.5l0,5.7
	c0.1,0.1,0.1,0.4,0.4,0.3c0.6-0.3,0.8-0.9,1.2-1.4c0.3-0.4,0.6-0.9,1-1.2c0.8-1.2,2-2.1,2.6-3.5l0-6.6l0.3-0.2c1.2,0,2.2,0,3.5,0.1
	c2.3-0.4,4.5,0,6.9-0.1c0.4,0.3,0.2,1.1,0.2,1.5c0.3,1.4,0,2.8,0.1,4.3c-0.3,0.9-1.8,0.3-2.6,0.7c-1.2,1.5-2.4,3.3-3.7,4.7
	c-0.2,0.3-0.3,0.6-0.6,0.8c-0.4,0.7-1,1.3-1.4,2l0.2,0.2c2,0.3,4.4,0.1,5.7,1.9c1.2,1.6,0.8,3.8,1,5.7c0.2,2,3.4,0.4,2.8,2.7l0,2.1
	c-0.1,1-0.2,2,0,2.8c0,0.6-0.7,0.6-1.1,0.6c-2.7,0-5.8,0.4-8.6-0.3c-1.4-0.4-2.5-1.6-2.9-3c-0.2-2.2-0.1-4.5-0.5-6.6
	c-0.4-0.8-1-1.6-1.9-1.7c-0.8-0.2-1.8,0-2.5,0.1l-0.3,0.3c0.1,1.6-0.2,2.9,0.1,4.3c0.8,0.4,1.7-0.1,2.5,0.3l0,6.4
	c-0.2,0.3-0.6,0.2-0.9,0.4c-4.8,0-9.3,0.1-14.3-0.1c-0.4-0.1-0.3-0.6-0.3-0.9c0-1.9-0.1-4,0.1-5.8L153.9,90.8z"/>
<path d="M177.8,40.7c0.3-3.8,2.2-7,5.3-8.8c1.5-0.7,2.9-1.2,4.3-1.4c4.8-0.8,9.5,0.6,12.4,4.3c0.8,0.9,1,2.2,1.6,3.2
	c0.9,2.9,0.8,6.8-0.1,9.7c-0.6,2-1.9,3.6-3.4,5.1c-2.8,2-6.3,2.9-9.9,2.6c-3.8-0.4-7.9-2.7-9.4-6.5c-0.7-1.9-1.1-3.8-1.2-5.9
	C177.6,42.3,177.7,41.5,177.8,40.7z M186.9,42.7c0.4,2.2-0.2,4.9,1.5,6.6c0.9,0.5,2,0.5,2.9,0c0.7-0.4,1-1.2,1.2-1.9l0.2-4.7
	c-0.3-2.2,0.4-5-1.7-6.4c-0.6-0.2-1.4-0.3-1.9-0.2C186.3,36.9,187.3,40.5,186.9,42.7z"/>
<path d="M203,30.5c3.8,0.1,8.7,0.1,12.3,0.1l0.2,0.3c0.1,1.6-0.1,3.3-0.2,4.8c-0.7,0.4-1.7-0.4-2.1,0.5c0.1,3.8-0.5,8,0.3,11.6
	c0.4,0.9,1.3,1.3,2.1,1.6c1.2,0,2.6-0.1,3.2-1.3c1-1,0.3-2.8,0.8-4c0-2.4,0.1-4.9-0.3-7.1c-0.3-1-1.7-0.6-2.1-1.5
	c0.1-1.8-0.2-3.2,0.2-4.8c0.3-0.2,0.8,0,1.2,0c2.7,0.1,5.4-0.1,8.1,0.2c0.3,1.7,0,3.2,0,5c-0.8,0.4-1.9,0.4-2.1,1.5
	c-0.5,3.8-0.1,7.5-0.4,11.3c-0.3,0.9-0.5,2-1,2.7c-2.1,3.3-6.2,4.8-10.3,4.3c-3.3-0.3-7-2.1-7.9-5.5c-0.4-3.1-0.2-6.2-0.2-9.4
	c0.1-1.6,0.1-3.1,0-4.6c-0.6-0.3-1.7,0.2-2.1-0.5l0.1-4.8L203,30.5z"/>
<path d="M188.8,88.8c2-1,4.9-0.8,6.8,0.5c1.3,1.3,2,3.2,1.5,5.3c-0.5,1.6-2,2.8-3.6,3.2c-2.2,0.5-4.7,0.2-6.2-1.6
	c0-0.4-0.4-0.4-0.5-0.8C185.9,93.1,186.4,89.9,188.8,88.8z"/>
<path d="M204.6,67.4c4.7,0.1,10,0,14.4-0.1c2.9,0.3,5,0,8,0.1l0.3,0.3l0,11.2c-1.2,0.3-2.9,0.3-4.1,0.2c-0.3,0-0.5-0.2-0.7-0.5
	c-0.4-0.8-0.6-1.8-1-2.6c-0.3-0.8-0.3-2-1.3-2.1l-2.3-0.1l-0.4,0.4c0.2,1.5-0.3,3,0.2,4.4c1.1,0.2,2.1,0.2,3.2,0.2
	c0.3,0,0.4,0.3,0.4,0.5l0,5.7c-1.2,0.2-2.3,0.1-3.5,0.2l-0.2,0.2c-0.1,1.7-0.1,3.7,0,5.3c0.8,0.5,2,0.2,2.8,0.3
	c0.2-0.1,0.6,0,0.8-0.1c0.6-0.4,0.3-1.2,0.7-1.6c0-0.8,0.4-1.4,0.5-2c0.4-0.9,0.5-2,1.1-2.8l4.1,0.1l0.3,0.1l0.1,12.9l-0.4,0.2
	l-4.8,0.1l-12.5,0l-5.4,0l-0.3-0.4c0-1.9-0.2-3.7-0.1-5.7c0.3-1.1,1.5-0.7,2.5-0.9l0.3-0.3c-0.4-5.7,0-10.7-0.2-16.1
	c-0.3-0.8-1.5-0.2-2-0.5c-0.2,0-0.5-0.1-0.6-0.4c-0.3-1.9-0.1-3.8-0.1-5.7L204.6,67.4z"/>
<path d="M228.1,30.5c4,0,8.3,0,12.5,0.1l0.2,0.4v4.5c-0.5,0.5-1.4,0.3-2,0.2l-0.2,0.2c0.5,2.7,1.4,5.2,2,7.9
	c0.3,0.1,0.1,0.6,0.5,0.5c0.4-1.4,0.8-2.9,1.2-4.3c0.7-3,1.8-5.8,2.4-8.9l0.4-0.6l5.6,0.1c0.5,0.4,0.5,1.2,0.7,1.7
	c0.9,3.8,2.1,7.4,3.1,11.2l0.2,0.2c0.7-1.2,0.8-2.7,1.3-4c0.2-1,0.5-1.9,0.4-3c-0.1-0.7-1-0.8-1.4-1.3c0.1-1.8-0.1-3.2,0.1-4.9
	l0.3-0.1l9.2,0.2l0.2,0.3c-0.1,1.6,0.1,3.1,0.1,4.6c-1,0.3-2,0.5-2.4,1.6c-0.5,1.1-0.7,2.4-1.2,3.6c-0.2,1.2-0.6,2.2-0.9,3.2
	c-0.1,1-0.7,1.7-0.7,2.8c-0.3,0.7-0.5,1.3-0.6,2.1c-0.6,2-1.2,4.1-1.8,6.2l-0.6,0.2l-7.4-0.1c-0.9-1.5-0.9-3.6-1.6-5.3
	c-0.3-1.5-0.8-2.8-1.1-4.3l-0.2-0.2c-0.8,1.3-1,2.9-1.4,4.4c-0.3,0.6-0.3,1.4-0.6,2c-0.3,1.1-0.5,2.2-0.9,3.3l-0.9,0.2l-7.1-0.1
	l-0.3-0.3c-1.8-6.1-3.2-12.4-4.9-18.5c-0.7-0.7-2,0.1-2.3-0.9l0.1-4.4L228.1,30.5z"/>
<path d="M230.2,90.6c1.1,0.1,1.9-0.6,2.4-1.4c0.5-4.8,0.2-10.2,0.2-15.1c-0.5-0.6-1.3-0.2-2-0.5c-0.6-0.4-0.5-1.1-0.5-1.8l0.1-4.5
	c1.2-0.5,2.7,0.2,3.9-0.1c3,0.2,6.7-0.3,9.6,0.2c0.8,1.5,1.4,3,2.2,4.4c1.3,2.5,2.5,5,3.8,7.5c0.8,1.3,1.4,2.7,2.1,4l0.3,0.2
	l0.3-0.5c0-2.6-0.1-5.2-0.3-7.8c-0.2-0.2-0.2-0.3-0.2-0.6c-0.5-1.3-2.2-0.4-2.5-1.6c0-2-0.1-3.8,0.1-5.7c4.1-0.2,7.5-0.1,11.3,0
	c0.5,0.1,0.4,0.6,0.4,1l0,5.2c-0.8,0.4-2,0.4-2.4,1.4c-0.6,2-0.2,4.3-0.5,6.3l-0.1,15.9l-0.5,0.3l-10.4,0c-1.1-1-1.4-2.4-2.1-3.6
	c-1.9-4-3.9-7.8-5.8-11.8c-0.2,0-0.2-0.4-0.5-0.3l-0.2,0.4c0.1,2.4-0.1,4.5,0.1,6.8c0.1,0.7,0.7,1.2,1.3,1.4
	c0.5,0.4,1.4-0.1,1.5,0.8l-0.1,6.2c-3.6,0.4-7.2,0.1-10.8,0.1c-0.3-0.2-0.9,0-0.9-0.6C230,94.9,229.6,92.5,230.2,90.6z"/>
<path d="M267,49.6c0.6-0.1,1.7,0.5,1.9-0.4c-0.1-4.4,0-8.4-0.1-13c-0.5-0.6-1.7,0-2.1-0.7l0.1-4.8l0.2-0.1l14.2,0.1
	c2.6,0.3,5.4,1.4,6.4,4c1,1.7,0.6,4.2-0.5,5.6c-0.6,1-1.6,1.4-2.4,2.1l0.1,0.2c2.3,0.9,4.8,2.5,4.7,5.4c-0.1,0.8,0.1,1.8-0.4,2.5
	c-0.3,0.7-0.6,1.4-1,2c-2.2,3-6.5,2.6-9.9,2.8l-11.1,0l-0.5-0.2l0.1-5.1L267,49.6z M277.2,49.2c0.2,0.3,0.4,0.4,0.7,0.4
	c1.2,0.1,2.6-0.2,3.2-1.3c0.1-0.7,0.2-1.8-0.4-2.4c-0.5-0.3-0.9-0.7-1.4-0.8c-0.7,0.1-1.5-0.4-2,0.2L277.2,49.2z M277.2,39.7
	l0.3,0.3c1.2,0,2.2,0.1,2.9-0.8c0.6-0.6,0.3-1.7,0-2.4l-1.2-0.8c-0.6,0-1.6-0.3-1.9,0.3V39.7z"/>
<path d="M262.9,67.3l12.6,0.1c4.3-0.1,8.2-0.1,12.4,0l0.3,0.2c0.2,3.2,0,7.1,0.1,10.5c-0.4,0.3,0.2,1-0.5,1l-3.8,0
	c-0.6-0.1-0.4-0.8-0.6-1.2l-0.8-3.6c-0.6-0.4-1.4-0.5-2-0.2l-0.2,0.5l0,15.9c0.7,1,3.1-0.6,2.5,1.3c0.4,1.7,0,3.1,0.2,4.8
	c-0.1,0.3,0,0.7-0.3,1l-0.8,0.1l-14.1,0l-0.4-0.4c-0.1-1.9-0.1-4.2,0-6.2c0.7-0.5,1.7-0.2,2.6-0.4c0.2-0.3,0.3-0.8,0.1-1.1
	c0-4.9,0-9.4,0.2-14.3c-0.2-0.4,0.2-1.1-0.3-1.4c-0.6,0.1-1.6-0.3-1.8,0.5c-0.4,0.4-0.1,1.2-0.5,1.6c0,1.1-0.4,2-0.6,3l-0.4,0.2
	l-3.9,0c-0.1-0.1-0.3-0.1-0.3-0.3c0-3.7-0.1-7.7,0-11.3L262.9,67.3z"/>
<path d="M290.7,49.9c0.5-0.7,1.3-0.3,2-0.4l0.2-0.5l-0.1-12.7c-0.4-0.9-1.4-0.1-2.1-0.7c-0.2-1.5-0.1-3.2-0.1-4.8l0.3-0.2l13.8,0.1
	l4.2,0.1c0.2,3,0.1,6,0.1,9.1l-0.1,0.2c-1.2,0.1-2.4,0.2-3.6-0.1c-0.9-1.3-0.7-2.9-1.8-4.1c-0.7-0.1-1.4,0-2.3-0.1l-0.3,0.5v3
	c0.1,0.1,0.2,0.4,0.4,0.4c0.9,0,1.8,0.2,2.6,0.1c0.1,1.8,0.3,3.2,0.1,5l-2.7,0.1l-0.3,0.4l0.1,3.9c0.6,0.6,1.6,0.4,2.4,0.4
	c0.4,0.1,0.7-0.3,0.9-0.6l0.1-0.9c0.3-0.1,0.2-0.6,0.4-0.9c0.5-0.9,0.6-2.2,1.2-2.9l3.3,0.1l0.2,0.4c0,3.4,0,6.8,0,10.1l-0.2,0.2
	h-18.6c-0.2,0-0.1-0.2-0.2-0.3L290.7,49.9z"/>
<path d="M289.6,90.8c0.7-0.2,1.5-0.1,2.3-0.1l0.2-0.4l0-7.3c0.2-0.3,0-0.7,0-1c0-2.4,0.2-4.8,0-7.3c-0.1-0.4,0-1.1-0.6-1
	c-0.6-0.2-1.6,0.1-2-0.5l0-5.7l0.3-0.3c5,0,10.2,0.1,15,0.1c0.7,0.9,0.3,2.2,0.5,3.2c-0.1,0.9-0.1,2.1-0.2,2.9
	c-0.7,0.4-1.7,0.2-2.4,0.2c-0.4,0.5-0.3,1.2-0.3,1.8c-0.1,4.6,0,10.1,0,14.9c0.7,0.5,1.5,0.2,2.3,0.3c0.2,0.1,0.5,0.3,0.5,0.6l0,6
	c-0.3,0.2-0.7,0.2-1,0.2c-5,0.2-9.4,0-14.3,0c-0.5-0.1-0.4-0.9-0.5-1.3C289.5,94.4,289.5,92.7,289.6,90.8z"/>
<path d="M311.4,30.4c6,0.5,12.3-1.1,18,1.2c4,1.7,6,5.9,6.5,10.1c0,1.7,0.1,3.6-0.6,5.1c-0.2,0.8-0.2,1.7-0.9,2.4
	c-0.1,0.4-0.4,0.9-0.7,1.2c-3.1,4.7-9.3,4.6-14.7,4.7c-2.5-0.1-5.2,0-7.5-0.1l-0.2-0.3c-0.1-1.8-0.1-3.2,0-4.9l0.2-0.3
	c0.7-0.2,1.8,0.2,2.1-0.6c-0.1-4.2-0.1-8.1-0.2-11.7c0-0.5,0.1-1.4-0.5-1.4c-0.5-0.2-1.8,0.4-1.7-0.7v-4.4L311.4,30.4z M321.8,49
	c0.2,0.5,0.9,0.4,1.4,0.3c1.2-0.5,2.4-1.4,2.6-2.7c0.3-0.4,0.3-1,0.5-1.4c0-1.9,0.3-4.1-0.2-5.9c-0.4-1.3-1-2.7-2.4-3.3
	c-0.6-0.2-1.4-0.5-1.8-0.2C321.8,40.1,321.8,44.6,321.8,49z"/>
<path d="M307.4,67.5c0.6-0.3,1.1-0.1,1.8-0.1l13.5,0l0.3,0.4l0,5.6l-0.2,0.3l-2.3,0.1c-0.4,1-0.2,2.3-0.3,3.4
	c-0.1,3.7-0.1,7.3,0.3,10.8c0.4,1,1.2,1.9,2.2,2.3c1.3,0.4,2.8,0.3,3.9-0.6c1.6-1.3,1.1-3.9,1.5-5.8l-0.1-8.2
	c-0.2-0.6-0.4-1.1-1-1.5c-0.6-0.2-1.3-0.2-1.7-0.7l0.1-6l0.3-0.2l11.1,0.2c0.7,0.9,0.1,2.2,0.3,3.3c0,0.9-0.2,1.6,0,2.6
	c-0.3,0.6-1.1,0.5-1.6,0.8c-0.5,0.3-0.8,0.5-1,1c0,0.3,0,0.6-0.2,0.8c-0.2,4.5,0,9.5-0.4,13.9c-0.2,0.6-0.4,1.2-0.6,1.8
	c-1,2.2-2.8,3.9-5,5c-4.3,2.2-10.9,1.9-14.7-1.1c-2.1-1.5-3.6-3.8-3.6-6.6c-0.1-5.1,0.1-10.3,0.1-15.1c-0.8-0.5-2.3,0.2-2.6-0.9
	C307.1,71.4,307.5,69.5,307.4,67.5z"/>
<path d="M336.3,30.4c5.2,0.2,10.5,0,15.8,0.2c2.8,0.2,5.8,1.5,6.7,4.2c0.4,1,0.6,2.1,0.5,3.4c-0.3,0.6-0.1,1.4-0.5,1.9
	c0.1,0.5-0.4,0.6-0.4,1.1c-0.7,0.8-1.4,1.7-2.4,2.1v0.4c1.3,0.6,2.2,2,2.1,3.5c0.1,0.8,0,1.7,0.8,2.1c0.5,0.2,1.1,0.3,1.7,0.4
	c0.3,1.7-0.1,3.7,0.1,5.3l-0.3,0.2c-2.4,0-4.9-0.1-7.2-0.1c-1.2-0.3-2.3-1.1-2.6-2.4c-0.5-2.3,1-5.8-1.5-7.1c-0.9,0-1.9-0.5-2.5,0.2
	c0.1,1.2-0.2,2.3,0.1,3.5c0.5,0.9,2.3-0.3,2.2,1l-0.1,3c0.2,0.4,0.1,0.9,0.1,1.3l-0.3,0.3h-12l-0.3-0.3v-5c0.4-0.6,1.3-0.1,2-0.2
	l0.2-0.1c-0.1-3,0-6.2-0.1-9.2c-0.2-1.4,0.3-2.8-0.2-4.2c-0.7-0.3-1.4-0.1-2.1-0.5c0.1-1.7-0.2-3.1,0-4.8L336.3,30.4z M346.5,40
	c0.1,0.3,0,0.7,0.3,0.9c1.2,0.2,2.8,0,3.6-1c0.4-0.8,0.5-2.3-0.1-3.2c-0.4-0.2-0.8-0.8-1.4-0.8c-0.7,0.2-1.4-0.3-2.2-0.1
	C346.2,37,346.6,38.6,346.5,40z"/>
<path d="M338.5,72.5c0.3-0.7,0.6-1.4,1.2-2c0.7-1.3,2.1-2.1,3.3-2.8c2.8-1.3,6.1-0.5,8.5,1c0.7-0.1,0.2-1,0.9-1.2
	c1.4,0,2.8,0,4.3,0.2L357,68c-0.2,3.1,0,6.4-0.1,9.5l-0.4,0.4l-4.4,0c-1.1-1.6-2.6-3.7-4.7-3.7c-0.5,0.1-1,0.3-1.1,0.8
	c0.1,1.9,2.2,2.1,3.5,2.7c4.2,0.9,8.4,3.7,9.2,8.2c0.4,1.8,0,3.5-0.1,5.3c-0.3,0.9-0.4,2-1,2.8c-0.5,0.4-0.6,1.2-1.1,1.6
	c-2.5,2.2-6.5,3.7-10,2c-0.8-0.4-1.4-0.8-2.1-1.3c-0.8,0.2-0.5,1.2-1.2,1.4c-1.6-0.2-3.5,0.1-5-0.2l-0.2-0.4l0-9.2l0.3-0.4l4.9,0.1
	c0.6,0.3,1,1,1.3,1.5c0.9,1.2,2.4,2.1,3.9,1.9c0.5-0.2,1.2-0.6,1.2-1.2c0-1.7-2-1.7-3.1-2.4c-3.3-1.2-7.3-2.2-8.3-6
	C337.1,78.7,337.7,75.1,338.5,72.5z"/>
<path d="M362,49.7c0.5-0.5,2,0.3,2.1-0.6l0-13c-0.7-0.6-2.2,0.3-2.1-1v-4.2l0.3-0.2c4.3,0.1,7.7,0,12,0.1c0.5,1.4,0.2,3.3,0.3,5
	c-0.7,0.3-1.7-0.2-2.2,0.5v13.1c0.4,0.6,1.2,0.4,1.9,0.3l0.3,0.3l-0.1,5.1c-3.9,0.3-7.7,0.1-11.9,0.2c-0.2-0.1-0.6-0.2-0.6-0.5
	L362,49.7z"/>
<path d="M375.9,45.7c0.1-1,1.3-0.3,1.9-0.5h2.4l0.3,0.3c0.2,1.3-0.3,2.9,1,3.6c0.5,0.1,0.8,0.1,1.3-0.2c0.4-0.2,0.3-0.7,0.6-1
	l-0.1-11.8c-0.6-0.7-1.8,0.1-2.2-0.8l0.1-4.7l0.3-0.2c3.8,0.3,7.7,0,11.9,0.2l0.3,0.2v4.7c-0.4,0.3-1.3,0.1-1.9,0.2l-0.2,0.3
	l-0.1,13.5c-0.3,3.2-2.7,4.8-5.5,5.8c-1.9,0.5-4-0.1-5.5-1.3c-0.6,0.1-0.5,0.6-1,0.9c-1.2,0.1-2.4,0.1-3.5-0.1
	c-0.5-1-0.1-2.4-0.3-3.6L375.9,45.7z"/>
<path d="M395.4,49.6c0.8-0.2,1.5,0.4,2.1-0.3c-0.3-3.1,0.1-6.2-0.1-9.4c0.1-1.2,0.3-2.7-0.1-3.9c-0.5-0.4-1.8,0.3-2-0.7
	c0-1.5,0.2-2.9,0.1-4.6l0.2-0.1l12.2,0.1c2,0.1,4,0,5.9,0.1l0.2,0.2L414,40c-1.1,0.4-2.4,0.2-3.6,0.2c-0.7-0.6-0.7-1.6-1.2-2.4
	c0.2-0.6-0.5-0.8-0.4-1.4c-0.5-0.9-1.8-0.4-2.6-0.5l-0.4,0.5l0.1,3.2c1,0.4,1.9,0.2,2.9,0.4c0.2,1.7,0.2,3.3,0,4.9l-0.2,0.1
	l-2.5-0.1l-0.4,0.3v4.2c0.6,0.5,1.4,0.1,2,0.3c0.1,1.8,0.3,3.6,0.1,5.3c-4.1,0.3-8.6,0-12.3,0.1c-0.3-0.1-0.5-0.4-0.5-0.6l0.1-4.6
	L395.4,49.6z"/>
<path d="M370,92.2l1.7,0c0.5-0.9-0.1-1.9,0.1-3v-9.8c-0.6-0.8-1.8,0.2-2.1-0.9l0-4.2L370,74l13.8,0c2.4,0.4,4.9,1.2,6,3.6
	c0.8,1.5,0.9,3.7-0.1,5.2c-0.5,0.9-1.3,1.6-2.2,2c-0.1,0.3-0.4,0.1-0.4,0.4c0.7,0.4,1.5,0.8,2.3,1.2c1.3,1,2.5,2.4,2.4,4.2
	c0,0.9-0.2,1.8-0.5,2.5c0.1,0.4-0.4,0.5-0.4,0.9c-1.3,2.5-4.3,3.3-7,3.5c-3.5,0.1-6.9,0.3-10.6,0.1l-3.2-0.1l-0.3-0.3l0-4.7
	L370,92.2z M379.8,91.8l0.2,0.3c1.2,0.3,2.7,0.1,3.5-1c0.3-0.8,0.2-1.7-0.2-2.4c-0.3-0.6-1-0.8-1.6-0.9c-0.6,0-1.3-0.4-1.8,0.1
	L379.8,91.8z M379.8,82.6l0.2,0.3c0.9,0.2,2.2,0.2,2.9-0.6c0.4-0.4,0.5-1.1,0.3-1.7c-0.1-0.8-0.9-1.1-1.5-1.4
	c-0.6-0.1-1.4-0.3-1.9,0.2L379.8,82.6z"/>
<path d="M391.4,74.3l11.5,0l0.3,0.2l0.1,4.6c-0.4,0.3-1.1-0.2-1.5,0.3c0.7,3.5,1.5,6.9,2.7,10.2c0.4-0.2,0.4-0.9,0.6-1.3
	c-0.1-0.6,0.4-1,0.4-1.5c0.6-1.8,1.1-3.6,1.7-5.4c0-0.5,0.1-1.3-0.3-1.7c-0.4-0.4-1.3,0-1.6-0.7l0-4.3l0.2-0.3
	c3.4,0,6.2-0.1,9.4,0.1l0.1,0.2l-0.1,4.5c-3.1,0.5-3,4.3-4.2,6.5c-0.2,1-0.6,1.8-0.9,2.7c-0.2,1.4-1.1,2.4-1.2,3.8
	c-0.3,0.6-0.5,1.2-0.7,1.8c-0.5,1.1-0.8,2.3-1.1,3.4l-0.5,0.3h-7.3c-0.8-0.9-0.6-2.2-1.2-3.2c-1.4-4.9-2.5-10-4-15
	c-0.6-0.3-1.6-0.2-2.2-0.3c-0.3-0.5-0.2-1.1-0.3-1.7C391.3,76.5,391,75.3,391.4,74.3z"/>
<g>
	<polygon class="st0" points="106.5,9.4 136,64.2 106.5,118.7 93.2,92.5 109.4,63.9 93.2,35.3 	"/>
	<polygon class="st0" points="87.8,74.1 82,63.9 87.8,53.7 93.7,63.9 	"/>
	<polygon class="st0" points="45.5,92.3 28.4,63.9 45.5,35.5 62.7,63.9 	"/>
	<line class="st1" x1="82.2" y1="63.9" x2="112" y2="63.9"/>
	<polygon class="st2" points="87.8,53.7 34.7,53.5 45.5,35.5 93.2,35.3 106.5,9.4 30.3,9.4 0,63.9 82,63.9 	"/>
	<polygon class="st2" points="87.8,74.1 34.7,74.3 45.5,92.3 93.2,92.5 106.5,118.4 30.3,118.4 0,63.9 82,63.9 	"/>
</g>
</svg>
