<?xml version="1.0" encoding="utf-8"?>
<!-- Generator: Adobe Illustrator 23.0.1, SVG Export Plug-In . SVG Version: 6.00 Build 0)  -->
<svg version="1.1" id="Laag_1" xmlns="http://www.w3.org/2000/svg" xmlns:xlink="http://www.w3.org/1999/xlink" x="0px" y="0px"
	 viewBox="0 0 496 427" style="enable-background:new 0 0 496 427;" xml:space="preserve">
<style type="text/css">
	.st0{fill:#00684A;}
	.st1{fill:#FFFFFF;stroke:#CCCCCC;stroke-width:0.5;stroke-miterlimit:1;}
	.st2{fill:#00684A;stroke:#00684A;stroke-miterlimit:1;}
	.st3{fill:none;stroke:#00684A;stroke-miterlimit:1;}
	.st4{fill:#FFFFFF;stroke:#00684A;stroke-miterlimit:1;}
</style>
<polygon class="st0" points="496.3,-0.5 249.7,-0.5 126.5,213 249.7,426.5 496.3,426.5 619.5,213 "/>
<polygon class="st1" points="149,172.8 96.4,172.8 74.3,213.4 96.4,254 149,254 171,213.4 "/>
<g>
	<polygon class="st2" points="146.8,176.4 166.9,213.8 146.8,251.1 137.7,233.2 148.7,213.6 137.7,194.1 	"/>
	<polygon class="st2" points="134,220.6 130,213.6 134,206.7 138,213.6 	"/>
	<polygon class="st2" points="105.1,233 93.4,213.6 105.1,194.2 116.8,213.6 	"/>
	<line class="st3" x1="130.2" y1="213.6" x2="150.5" y2="213.6"/>
	<polygon class="st4" points="134,206.7 97.7,206.5 105.1,194.2 137.7,194.1 146.8,176.4 94.7,176.4 74,213.6 130,213.6 	"/>
	<polygon class="st4" points="134,220.6 97.7,220.7 105.1,233 137.7,233.2 146.8,250.9 94.7,250.9 74,213.6 130,213.6 	"/>
</g>
</svg>
